<svg width="50" height="51" viewBox="0 0 50 51" fill="none" xmlns="http://www.w3.org/2000/svg">
<path fill-rule="evenodd" clip-rule="evenodd" d="M9.49331 0.138576C9.09607 0.21657 8.38884 0.476053 7.84975 0.741512C7.06543 1.1278 6.75684 1.35421 6.04653 2.06442C5.33532 2.77563 5.1106 3.08223 4.72451 3.86765C3.92714 5.48999 3.96499 4.73724 3.96499 18.9602V31.5449L3.36335 32.1188C0.196868 35.1391 -0.843653 39.7694 0.712943 43.9134C2.00318 47.3484 5.05601 49.957 8.72283 50.7577C9.69452 50.9698 11.9962 50.9898 12.9796 50.7947C15.2136 50.3514 17.1472 49.297 18.757 47.6445C23.0179 43.2706 22.908 36.312 18.5119 32.1188L17.9103 31.5449V18.9472C17.9103 4.74152 17.9493 5.51748 17.1517 3.88359C15.7585 1.03028 12.6623 -0.483883 9.49331 0.138576ZM11.9538 2.08514C13.8204 2.47442 15.4188 4.07275 15.808 5.93943C15.885 6.30858 15.9192 10.3524 15.9216 19.3867C15.9244 29.3327 15.953 32.355 16.0461 32.5186C16.1127 32.6355 16.4486 32.9655 16.7928 33.252C18.046 34.2953 19.1648 36.0887 19.6206 37.7846C19.9283 38.9296 19.927 41.1308 19.618 42.2671C18.7588 45.4265 16.3343 47.8507 13.1789 48.7053C12.1287 48.9898 9.94006 49.0187 8.91269 48.7617C5.64361 47.9438 3.13544 45.4963 2.25729 42.2671C1.9474 41.1275 1.9469 38.9278 2.25629 37.7846C2.72435 36.0549 3.87335 34.2213 5.12644 33.2042C5.44638 32.9445 5.76264 32.6362 5.82918 32.5191C5.92231 32.3551 5.9509 29.3325 5.95369 19.3867C5.95608 10.3524 5.99025 6.30858 6.06725 5.93943C6.44566 4.12504 7.96919 2.555 9.777 2.11652C10.4331 1.95734 11.2823 1.94509 11.9538 2.08514ZM20.4115 4.10632C19.9401 4.36749 19.7831 4.94144 20.0444 5.44696C20.298 5.93734 20.4644 5.95945 23.8965 5.95945C27.3552 5.95945 27.5141 5.93694 27.7522 5.41439C27.9851 4.90329 27.8172 4.34627 27.3587 4.1092C26.972 3.90919 20.7718 3.9066 20.4115 4.10632ZM10.4506 6.0985C9.92362 6.39046 9.94892 5.65066 9.94504 20.9165L9.94155 35.1265L9.38264 35.3023C7.42094 35.9193 5.95718 37.9377 5.95718 40.0258C5.95718 42.7142 8.24929 45.0063 10.9376 45.0063C13.229 45.0063 15.3396 43.2884 15.808 41.042C16.3157 38.6076 14.8979 36.1277 12.544 35.3329L11.9337 35.1267V20.9462C11.9337 10.1642 11.9052 6.70313 11.8147 6.50451C11.5967 6.02579 10.9363 5.82926 10.4506 6.0985ZM20.4115 10.0829C19.9401 10.3441 19.7831 10.918 20.0444 11.4235C20.287 11.8926 20.5288 11.936 22.9004 11.936C25.2836 11.936 25.5334 11.8884 25.76 11.3909C25.9929 10.8799 25.825 10.3228 25.3666 10.0858C24.9847 9.88834 20.767 9.88575 20.4115 10.0829ZM20.4115 16.0594C19.9401 16.3206 19.7831 16.8946 20.0444 17.4001C20.298 17.8905 20.4644 17.9126 23.8965 17.9126C27.3552 17.9126 27.5141 17.8901 27.7522 17.3675C27.9851 16.8564 27.8172 16.2994 27.3587 16.0623C26.972 15.8623 20.7718 15.8597 20.4115 16.0594ZM20.4115 22.036C19.9401 22.2972 19.7831 22.8711 20.0444 23.3766C20.287 23.8457 20.5288 23.8891 22.9004 23.8891C25.2836 23.8891 25.5334 23.8415 25.76 23.3441C25.9929 22.833 25.825 22.276 25.3666 22.0389C24.9847 21.8415 20.767 21.8389 20.4115 22.036ZM20.4115 28.0126C19.9401 28.2737 19.7831 28.8477 20.0444 29.3532C20.298 29.8436 20.4644 29.8657 23.8965 29.8657C27.3552 29.8657 27.5141 29.8432 27.7522 29.3206C27.9851 28.8095 27.8172 28.2525 27.3587 28.0154C26.972 27.8154 20.7718 27.8128 20.4115 28.0126Z" fill="#FFA723"/>
<path d="M48.6602 15.085V17.2939H35.9902V15.085H48.6602ZM43.5059 9.68945V23.1465H41.1572V9.68945H43.5059Z" fill="#FFA723"/>
</svg>
