<svg width="51" height="51" viewBox="0 0 51 51" fill="none" xmlns="http://www.w3.org/2000/svg">
<path d="M8.98676 2.03293C8.22305 1.38616 8.02692 0.602139 8.53005 0.20649C8.67438 0.0929355 8.9005 0 9.03258 0C9.29086 0 9.76172 0.40282 9.76172 0.623754C9.76172 0.697863 9.95506 0.894791 10.1914 1.06144C10.7254 1.43786 10.9989 1.97525 10.9274 2.50787C10.8614 3.00063 10.6534 3.31679 10.1604 3.67389L9.76939 3.95718L10.1724 4.28111C10.9345 4.89351 11.1421 5.51527 10.7505 6.01292C10.4839 6.35199 9.96044 6.37341 9.66599 6.05735C9.55433 5.93752 9.46229 5.79179 9.4616 5.73362C9.4609 5.67554 9.21626 5.41377 8.91783 5.1521C8.32675 4.63373 8.18919 4.2841 8.3142 3.61791C8.38123 3.26061 8.79362 2.75241 9.21387 2.50916C9.40263 2.39999 9.39067 2.37499 8.98676 2.03293Z" fill="#FFA723"/>
<path d="M15.9375 34.8633C15.5625 34.4883 15.7205 33.8387 16.2363 33.6349C16.3185 33.6024 16.9164 33.5854 17.565 33.597C18.7223 33.6178 18.7488 33.6233 18.9845 33.8977C19.2787 34.2401 19.2869 34.4585 19.0181 34.8C18.8134 35.0603 18.8005 35.0625 17.4742 35.0625C16.2695 35.0625 16.1169 35.0427 15.9375 34.8633Z" fill="#FFA723"/>
<path fill-rule="evenodd" clip-rule="evenodd" d="M24.2045 0.348434C24.3958 0.249721 24.6648 0.132182 24.8021 0.0870586C25.232 -0.0538887 26.2196 0.0562793 26.6982 0.298629C27.3569 0.632221 41.0595 8.76453 41.2632 8.94283C41.4861 9.13787 41.4916 9.73602 41.2726 9.97797C40.8805 10.4113 40.8064 10.3734 33.1978 5.85315C26.5128 1.88152 25.9134 1.54614 25.5 1.54713C25.0897 1.54813 24.5499 1.84646 19.125 5.07081C15.8653 7.00822 12.1 9.24445 10.7578 10.0401C9.41558 10.8358 6.78081 12.4014 4.90287 13.5192L1.48826 15.5514L1.54395 18.0791L5.21266 18.1289C8.69839 18.1762 8.88854 18.1884 9.02272 18.3721C9.2574 18.6932 9.20082 19.1812 8.90159 19.4166C8.66193 19.6051 8.50614 19.623 7.10862 19.623C6.26682 19.623 5.57812 19.64 5.57812 19.6607C5.57812 19.6814 5.64536 19.8592 5.72754 20.0559C5.91969 20.5158 5.91969 21.6189 5.72754 22.0788C5.64536 22.2755 5.57812 22.4533 5.57812 22.4741C5.57812 22.4948 14.543 22.5117 25.5 22.5117C36.457 22.5117 45.4219 22.4948 45.4219 22.4741C45.4219 22.4533 45.3546 22.2755 45.2725 22.0788C45.1903 21.8822 45.123 21.427 45.123 21.0674C45.123 20.7078 45.1903 20.2526 45.2725 20.0559C45.3546 19.8592 45.4219 19.6814 45.4219 19.6607C45.4219 19.64 37.8527 19.623 28.6013 19.623C12 19.623 11.7775 19.6205 11.5306 19.4262C11.2091 19.1734 11.1499 18.9315 11.3138 18.5415C11.3862 18.3694 11.4589 18.2176 11.4752 18.2042C11.4915 18.1909 20.0439 18.1573 30.4805 18.1295L49.4561 18.0791V15.5086L46.3682 13.6762C44.6698 12.6684 43.2243 11.7701 43.1558 11.6802C42.975 11.4426 43.0029 10.9133 43.2056 10.7352C43.5195 10.4595 43.7722 10.4475 44.2329 10.6866C45.2207 11.1991 50.1733 14.1865 50.4395 14.4302C50.9209 14.8712 51 15.1962 51 16.7344C51 18.1641 50.9065 18.6334 50.5413 19.0369C50.4037 19.1889 50.4159 19.2563 50.6677 19.7378C50.9052 20.1918 50.9463 20.3881 50.9463 21.0674C50.9463 21.7343 50.9038 21.9454 50.6851 22.3623C50.5414 22.6362 50.3313 22.944 50.2182 23.0462L50.0125 23.2321L50.3574 23.6839C51.1902 24.7744 51.1902 26.2256 50.3574 27.3161L50.0125 27.7679L50.2182 27.9538C50.3313 28.056 50.5414 28.3638 50.6851 28.6377C50.9038 29.0546 50.9463 29.2657 50.9463 29.9326C50.9463 30.5995 50.9038 30.8107 50.6851 31.2275C50.5414 31.5015 50.3327 31.808 50.2213 31.9087C50.0187 32.0918 50.0187 32.0919 50.3573 32.5354C51.1849 33.6197 51.1885 35.093 50.3662 36.1699L50.0299 36.6102L50.3687 37.002C51.0626 37.8047 51.1821 39.1499 50.6468 40.1333C50.4963 40.4099 50.2933 40.7085 50.1959 40.7966C50.0273 40.9491 50.0352 40.9788 50.3573 41.4006C50.9824 42.2195 51.1453 43.2388 50.8078 44.2168C50.6259 44.7434 50.626 44.7591 50.8109 44.9577C50.9869 45.1466 51 45.3464 51 47.8358V50.511L50.511 51H45.8934C41.3841 51 41.2708 50.9952 41.0579 50.7969C40.9156 50.6644 40.8398 50.4754 40.8398 50.2529C40.8398 50.0305 40.9156 49.8414 41.0579 49.709C41.27 49.5113 41.3873 49.5059 45.3909 49.5059H49.5059V46.2188H1.49414V49.5059H19.903C38.2916 49.5059 38.3123 49.5061 38.53 49.709C38.6722 49.8414 38.748 50.0305 38.748 50.2529C38.748 50.4754 38.6722 50.6644 38.53 50.7969C38.3123 50.9998 38.2948 51 19.4005 51H0.488982L0 50.511V47.8358C0 45.347 0.0131484 45.1465 0.188859 44.9579C0.374432 44.7587 0.374232 44.7446 0.178002 44.1671C-0.162064 43.1663 0.0465176 42.0889 0.739998 41.2649C0.982447 40.9767 0.984937 40.9602 0.809127 40.8012C0.70892 40.7104 0.503725 40.4099 0.353215 40.1333C-0.182086 39.1499 -0.0625547 37.8047 0.631324 37.002L0.970096 36.6102L0.633814 36.1699C-0.188461 35.093 -0.184875 33.6197 0.64268 32.5354C0.981352 32.0919 0.981352 32.0918 0.778746 31.9087C0.667283 31.808 0.458602 31.5015 0.314865 31.2275C0.0962227 30.8107 0.0536895 30.5995 0.0536895 29.9326C0.0536895 29.2657 0.0962227 29.0546 0.314865 28.6377C0.458602 28.3638 0.668678 28.056 0.781834 27.9538L0.987527 27.7679L0.64258 27.3161C-0.190154 26.2256 -0.190154 24.7744 0.64258 23.6839L0.987527 23.2321L0.781834 23.0462C0.668678 22.944 0.458602 22.6362 0.314865 22.3623C0.0962227 21.9454 0.0536895 21.7343 0.0536895 21.0674C0.0536895 20.3881 0.0948281 20.1918 0.332297 19.7378C0.584109 19.2563 0.596262 19.1889 0.458701 19.0369C0.0935332 18.6334 0 18.1641 0 16.7344C0 15.1958 0.0792891 14.87 0.560502 14.4317C0.806139 14.208 23.2388 0.846182 24.2045 0.348434ZM4.36299 21.0106C4.31737 20.3795 4.10152 20.0417 3.56602 19.763C3.20224 19.5737 2.71077 19.5871 2.29809 19.7976C1.3008 20.3061 1.24312 21.6554 2.19141 22.2945C2.47997 22.489 2.63287 22.522 3.07903 22.4861C3.55994 22.4476 3.66045 22.3974 4.01177 22.0207C4.39417 21.6109 4.40433 21.5815 4.36299 21.0106ZM48.8086 22.2945C49.7569 21.6554 49.6992 20.3061 48.7019 19.7976C47.7362 19.3051 46.6172 19.9723 46.6172 21.0406C46.6172 21.8967 47.1009 22.4205 47.9549 22.489C48.3635 22.5218 48.5265 22.4846 48.8086 22.2945ZM3.80817 26.6789C4.58412 26.1264 4.58034 24.8709 3.80109 24.316C3.10363 23.8194 2.13353 24.0408 1.71069 24.7933C1.43577 25.2824 1.43607 25.7181 1.71169 26.2086C2.13682 26.965 3.10233 27.1815 3.80817 26.6789ZM5.57812 26.9569C5.57812 26.9774 6.04878 26.9941 6.62402 26.9941H7.66992V24.0059H6.62402C6.04878 24.0059 5.57812 24.0226 5.57812 24.0431C5.57812 24.0636 5.64536 24.271 5.72754 24.5039C5.80972 24.7368 5.87695 25.185 5.87695 25.5C5.87695 25.815 5.80972 26.2632 5.72754 26.4961C5.64536 26.729 5.57812 26.9364 5.57812 26.9569ZM45.2725 24.5039C45.3546 24.271 45.4219 24.0636 45.4219 24.0431C45.4219 24.0226 44.9512 24.0059 44.376 24.0059H43.3301V26.9941H44.376C44.9512 26.9941 45.4219 26.9774 45.4219 26.9569C45.4219 26.9364 45.3546 26.729 45.2725 26.4961C45.1903 26.2632 45.123 25.815 45.123 25.5C45.123 25.185 45.1903 24.7368 45.2725 24.5039ZM49.5059 25.5C49.5059 25.005 49.1327 24.4343 48.6592 24.2051C48.0985 23.9336 47.6925 23.9665 47.1884 24.3242C46.8204 24.5854 46.6172 25.0035 46.6172 25.5C46.6172 26.2468 47.0889 26.8058 47.8375 26.9462C48.6157 27.0923 49.5059 26.3206 49.5059 25.5ZM4.3615 30.0696C4.41797 29.4822 4.24356 29.0617 3.81175 28.744C3.66333 28.6349 3.33134 28.534 3.04506 28.511C2.63646 28.4782 2.4735 28.5154 2.19141 28.7055C1.24312 29.3446 1.3008 30.6939 2.29809 31.2024C3.23033 31.6779 4.26139 31.1118 4.3615 30.0696ZM5.57812 31.3393C5.57812 31.36 6.04878 31.377 6.62402 31.377H7.66992V28.4883H6.62402C6.04878 28.4883 5.57812 28.5052 5.57812 28.5259C5.57812 28.5467 5.64536 28.7245 5.72754 28.9212C5.80972 29.1178 5.87695 29.573 5.87695 29.9326C5.87695 30.2922 5.80972 30.7474 5.72754 30.944C5.64536 31.1408 5.57812 31.3186 5.57812 31.3393ZM45.2725 28.9212C45.3546 28.7245 45.4219 28.5467 45.4219 28.5259C45.4219 28.5052 44.9512 28.4883 44.376 28.4883H43.3301V31.377H44.376C44.9512 31.377 45.4219 31.36 45.4219 31.3393C45.4219 31.3186 45.3546 31.1408 45.2725 30.944C45.1903 30.7474 45.123 30.2922 45.123 29.9326C45.123 29.573 45.1903 29.1178 45.2725 28.9212ZM48.7019 31.2024C49.6935 30.6968 49.7572 29.3413 48.8188 28.7144C48.4698 28.4813 47.8576 28.4215 47.4639 28.5822C47.167 28.7033 46.7211 29.1838 46.6526 29.4561C46.5437 29.8905 46.6807 30.5786 46.9294 30.8447C47.4389 31.3902 48.08 31.5196 48.7019 31.2024ZM3.66503 35.6216C4.58133 35.146 4.62696 33.6952 3.74392 33.1165C2.51703 32.3127 0.902361 33.8646 1.71826 35.0635C2.20963 35.7855 2.94395 35.9959 3.66503 35.6216ZM7.62012 35.8096L7.6752 32.8711H6.62671C6.04997 32.8711 5.57882 32.8824 5.57962 32.896C5.58042 32.9096 5.64576 33.1002 5.72465 33.3193C5.91331 33.8428 5.91461 34.831 5.72754 35.3613C5.64536 35.5942 5.57812 35.8032 5.57812 35.8256C5.57812 35.848 6.03752 35.8536 6.59912 35.838L7.62012 35.8096ZM45.2753 33.3193C45.3542 33.1002 45.4196 32.9096 45.4204 32.896C45.4212 32.8824 44.95 32.8711 44.3733 32.8711H43.3248L43.3799 35.8096L44.4009 35.838C44.9624 35.8536 45.4219 35.848 45.4219 35.8256C45.4219 35.8032 45.3546 35.5942 45.2725 35.3613C45.0854 34.831 45.0867 33.8428 45.2753 33.3193ZM49.4742 34.4983C49.5524 33.9151 49.2358 33.3494 48.6809 33.0808C48.1538 32.8257 47.8695 32.8177 47.4161 33.0456C46.3886 33.5618 46.34 35.1051 47.335 35.6216C48.2585 36.101 49.335 35.5357 49.4742 34.4983ZM3.66154 40.0435C4.60106 39.4707 4.63273 38.1435 3.72131 37.5426C3.06797 37.1119 2.04548 37.4148 1.66298 38.1524C1.02418 39.3844 2.48127 40.7631 3.66154 40.0435ZM5.57812 40.2045C5.57812 40.2253 6.04878 40.2422 6.62402 40.2422H7.66992V37.3535H6.62402C6.04878 37.3535 5.57812 37.3704 5.57812 37.3912C5.57812 37.4119 5.64536 37.5897 5.72754 37.7864C5.80972 37.983 5.87695 38.4383 5.87695 38.7979C5.87695 39.1574 5.80972 39.6127 5.72754 39.8093C5.64536 40.006 5.57812 40.1838 5.57812 40.2045ZM45.2725 37.7864C45.3546 37.5897 45.4219 37.4119 45.4219 37.3912C45.4219 37.3704 40.2447 37.3535 33.917 37.3535H22.4121V40.2422H33.917C40.2447 40.2422 45.4219 40.2253 45.4219 40.2045C45.4219 40.1838 45.3546 40.006 45.2725 39.8093C45.1903 39.6127 45.123 39.1574 45.123 38.7979C45.123 38.4383 45.1903 37.983 45.2725 37.7864ZM48.0099 40.2422C49.4615 40.2422 50.0254 38.3858 48.8188 37.5796C48.1476 37.1313 47.2365 37.3407 46.7899 38.0459C46.5147 38.4806 46.5843 39.3407 46.9243 39.7046C47.2458 40.0488 47.6364 40.2422 48.0099 40.2422ZM4.38241 43.2203C4.38291 42.6591 4.07801 42.159 3.58395 41.9108C2.04518 41.1377 0.737807 43.2252 2.07197 44.325C2.36542 44.5668 2.52918 44.625 2.91636 44.625C3.82371 44.625 4.38172 44.0903 4.38241 43.2203ZM7.62012 44.6748L7.6752 41.7363H6.62671C6.04997 41.7363 5.57812 41.7533 5.57812 41.774C5.57812 41.7947 5.64536 41.9725 5.72754 42.1692C5.80972 42.3659 5.87695 42.814 5.87695 43.1649C5.87695 43.5159 5.80972 43.9937 5.72754 44.2266C5.64536 44.4594 5.57812 44.6684 5.57812 44.6908C5.57812 44.7133 6.03752 44.7188 6.59912 44.7032L7.62012 44.6748ZM45.2725 42.1692C45.3546 41.9725 45.4219 41.7947 45.4219 41.774C45.4219 41.7533 40.2435 41.7363 33.9143 41.7363H22.4068L22.4619 44.6748L33.9419 44.7001C40.2559 44.7141 45.4219 44.7085 45.4219 44.6878C45.4219 44.667 45.3546 44.4594 45.2725 44.2266C45.1903 43.9937 45.123 43.5159 45.123 43.1649C45.123 42.814 45.1903 42.3659 45.2725 42.1692ZM49.0077 44.2765C49.764 43.5518 49.5918 42.335 48.671 41.898C48.2318 41.6896 47.8486 41.6935 47.4161 41.9108C46.3936 42.4245 46.3396 43.9715 47.3263 44.4818C47.8185 44.7363 48.6314 44.637 49.0077 44.2765ZM20.918 44.7246V24.0059H9.16406V44.7246H20.918ZM24.7031 26.9941V24.0059H22.4121V26.9941H24.7031ZM41.8359 35.8594V24.0059H26.2969V35.8594H41.8359ZM24.7031 31.377V28.4883H22.4121V31.377H24.7031ZM24.7031 35.8594V32.8711H22.4121V35.8594H24.7031Z" fill="#FFA723"/>
<path d="M41.2383 0.623754C41.2383 0.549645 41.3483 0.379014 41.4828 0.244541C41.7815 -0.0542871 42.1218 -0.0674355 42.47 0.20649C42.9733 0.602338 42.7755 1.39284 42.0149 2.02456C41.7814 2.2186 41.6119 2.39341 41.6384 2.41294L42.046 2.71276C42.7001 3.19358 42.9151 4.03229 42.5413 4.64528C42.4366 4.81701 42.1677 5.10468 41.944 5.28448C41.7202 5.46437 41.5371 5.66279 41.5371 5.72545C41.5371 5.7881 41.4457 5.93752 41.334 6.05735C41.0396 6.37341 40.5161 6.35199 40.2495 6.01292C39.8579 5.51527 40.0655 4.89351 40.8276 4.28111L41.2306 3.95718L40.8396 3.67389C40.3466 3.31679 40.1386 3.00063 40.0726 2.50787C40.0011 1.97525 40.2746 1.43786 40.8086 1.06144C41.0449 0.894791 41.2383 0.697863 41.2383 0.623754Z" fill="#FFA723"/>
<path d="M2.03741 4.95367C1.95185 4.60534 2.13971 4.14066 2.4226 4.00101C2.82572 3.80209 3.48633 4.1306 3.48633 4.53004C3.48633 4.59887 3.66742 4.77497 3.88865 4.9214C4.93584 5.61438 4.95796 6.8859 3.93497 7.58256C3.74372 7.71285 3.58703 7.84932 3.58663 7.88587C3.58624 7.92253 3.74053 8.04804 3.92959 8.16488C4.67547 8.62587 4.93943 9.64408 4.41917 10.0533C4.06028 10.3356 3.82052 10.3126 3.50486 9.96552C3.35773 9.80375 2.9835 9.41149 2.67342 9.09394C1.77245 8.17155 1.77882 7.43205 2.69443 6.65998L3.18142 6.24929L2.78966 5.96551C2.35058 5.64745 2.13762 5.36098 2.03741 4.95367Z" fill="#FFA723"/>
<path d="M47.5801 4.37694C47.6486 4.21397 47.8074 4.03936 47.9329 3.98896C48.2375 3.86674 48.2623 3.86704 48.5481 3.99732C49.0222 4.21328 49.1149 4.88903 48.7484 5.45561C48.668 5.57992 48.4259 5.80942 48.2103 5.96551L47.8186 6.24929L48.3056 6.65998C49.2212 7.43205 49.2276 8.17155 48.3266 9.09394C48.0165 9.41149 47.6423 9.80375 47.4951 9.96552C47.1795 10.3126 46.9397 10.3356 46.5808 10.0533C46.0625 9.64557 46.2913 8.7198 47.0384 8.20194C47.245 8.0588 47.4138 7.91416 47.4134 7.8805C47.413 7.84683 47.2563 7.71285 47.065 7.58256C46.589 7.25844 46.3184 6.78758 46.3184 6.28356C46.3184 5.73222 46.5341 5.34076 47.0399 4.97429C47.2684 4.80874 47.5116 4.5399 47.5801 4.37694Z" fill="#FFA723"/>
<path fill-rule="evenodd" clip-rule="evenodd" d="M21.4907 8.42914C22.0408 7.55378 23.032 6.80452 24.0853 6.46774C25.3723 6.05625 27.0077 6.2989 28.1679 7.07366C29.5639 8.0059 30.4062 9.77995 30.2386 11.4353C29.9868 13.9221 27.9868 15.7383 25.5 15.7383C21.7386 15.7383 19.4824 11.625 21.4907 8.42914ZM28.5179 9.74419C28.2326 9.11456 27.5578 8.40434 26.9483 8.09227C26.5575 7.89205 26.2698 7.8285 25.6494 7.80509C24.5113 7.76226 23.846 8.02782 23.1209 8.81443C22.4829 9.50662 22.2714 10.0514 22.2697 11.0068C22.268 11.9775 22.5525 12.6743 23.2158 13.3239C23.9215 14.0152 24.3915 14.1943 25.5 14.1943C26.2786 14.1943 26.5264 14.1549 26.8985 13.9714C27.5269 13.6618 28.1703 13.0005 28.4747 12.3516C28.8169 11.6221 28.8363 10.447 28.5179 9.74419Z" fill="#FFA723"/>
</svg>
