<svg width="46" height="46" viewBox="0 0 46 46" fill="none" xmlns="http://www.w3.org/2000/svg">
<path fill-rule="evenodd" clip-rule="evenodd" d="M43.9091 32.4091C45.0639 32.4091 46 33.3452 46 34.5V43.9091C46 45.0639 45.0639 46 43.9091 46H2.09091C0.936133 46 0 45.0639 0 43.9091V2.09091C0 0.936133 0.936132 0 2.09091 0H11.5C12.6548 0 13.5909 0.936132 13.5909 2.09091V30.3182C13.5909 31.473 14.527 32.4091 15.6818 32.4091H43.9091ZM2.61364 2.61364V43.3864H43.3864V35.0227H39.2045V37.1136C39.2045 37.8354 38.6195 38.4205 37.8977 38.4205C37.176 38.4205 36.5909 37.8354 36.5909 37.1136V35.0227H33.9773V39.2045C33.9773 39.9263 33.3922 40.5114 32.6705 40.5114C31.9487 40.5114 31.3636 39.9263 31.3636 39.2045V35.0227H28.75V37.1136C28.75 37.8354 28.1649 38.4205 27.4432 38.4205C26.7214 38.4205 26.1364 37.8354 26.1364 37.1136V35.0227H23.5227V39.2045C23.5227 39.9263 22.9376 40.5114 22.2159 40.5114C21.4942 40.5114 20.9091 39.9263 20.9091 39.2045V35.0227H18.2955V37.1136C18.2955 37.8354 17.7104 38.4205 16.9886 38.4205C16.2669 38.4205 15.6818 37.8354 15.6818 37.1136V35.0227H13.0682V39.4659C13.0682 40.1876 12.4831 40.7727 11.7614 40.7727C11.0396 40.7727 10.4545 40.1876 10.4545 39.4659V35.0227H8.625C7.90326 35.0227 7.31818 34.4376 7.31818 33.7159C7.31818 32.9942 7.90326 32.4091 8.625 32.4091H10.4545V29.7955H6.53409C5.81235 29.7955 5.22727 29.2104 5.22727 28.4886C5.22727 27.7669 5.81236 27.1818 6.53409 27.1818H10.4545V24.5682H8.625C7.90326 24.5682 7.31818 23.9831 7.31818 23.2614C7.31818 22.5396 7.90326 21.9545 8.625 21.9545H10.9773V19.3409H6.53409C5.81235 19.3409 5.22727 18.7558 5.22727 18.0341C5.22727 17.3124 5.81236 16.7273 6.53409 16.7273H10.9773V14.1136H8.625C7.90326 14.1136 7.31818 13.5286 7.31818 12.8068C7.31818 12.0851 7.90326 11.5 8.625 11.5H10.9773V8.88636H6.53409C5.81235 8.88636 5.22727 8.30128 5.22727 7.57955C5.22727 6.85781 5.81236 6.27273 6.53409 6.27273H10.9773V2.61364H2.61364Z" fill="white"/>
<path fill-rule="evenodd" clip-rule="evenodd" d="M32.6331 6.85624C31.5105 6.19591 30.1093 6.23535 29.0256 6.95778L23.2062 10.8374C22.2609 11.4676 21.6932 12.5284 21.6932 13.6645V20.9091C21.6932 22.7856 23.2144 24.3068 25.0909 24.3068H37.6364C39.5129 24.3068 41.0341 22.7856 41.0341 20.9091V13.7413C41.0341 12.5373 40.3969 11.4232 39.3591 10.8127L32.6331 6.85624ZM27.1818 15.6818C27.1818 14.527 28.118 13.5909 29.2727 13.5909H32.4091C33.5639 13.5909 34.5 14.527 34.5 15.6818V21.6932H37.6364C38.0694 21.6932 38.4205 21.3421 38.4205 20.9091V13.7413C38.4205 13.4635 38.2734 13.2064 38.0339 13.0655L31.3079 9.10902C31.0488 8.95664 30.7255 8.96574 30.4754 9.13245L24.656 13.0121C24.4378 13.1575 24.3068 13.4023 24.3068 13.6645V20.9091C24.3068 21.3421 24.6579 21.6932 25.0909 21.6932H27.1818V15.6818ZM29.7955 21.4318V16.2045H31.8864V21.4318H29.7955Z" fill="white"/>
<path fill-rule="evenodd" clip-rule="evenodd" d="M43.9091 0C45.0639 0 46 0.936132 46 2.09091V28.2273C46 29.3821 45.0639 30.3182 43.9091 30.3182L17.7727 30.3182C16.6179 30.3182 15.6818 29.382 15.6818 28.2273L15.6818 2.09091C15.6818 0.93613 16.618 0 17.7727 0H43.9091ZM18.2955 2.61364L43.3864 2.61364V27.7045L18.2955 27.7045L18.2955 2.61364Z" fill="white"/>
</svg>
