<svg width="44" height="44" viewBox="0 0 44 44" fill="none" xmlns="http://www.w3.org/2000/svg">
<circle cx="22" cy="22" r="22" fill="#2DC2F1"/>
<path d="M30.5196 13.0017C30.2611 13.0137 30.0177 13.089 29.8013 13.1733H29.7983C29.5789 13.2607 28.536 13.7003 26.9521 14.3659C25.3682 15.0344 23.3124 15.9017 21.2717 16.763C17.1963 18.4825 13.19 20.1749 13.19 20.1749L13.2381 20.1569C13.2381 20.1569 12.9616 20.2472 12.6731 20.446C12.5258 20.5423 12.3635 20.6748 12.2222 20.8826C12.081 21.0904 11.9668 21.4096 12.0088 21.7379C12.078 22.295 12.4386 22.6293 12.6971 22.813C12.9586 22.9997 13.208 23.087 13.208 23.087H13.214L16.9709 24.3548C17.1392 24.8969 18.116 28.1131 18.3504 28.8539C18.4887 29.2966 18.6239 29.5737 18.7922 29.7845C18.8734 29.8929 18.9695 29.9832 19.0837 30.0555C19.1288 30.0826 19.1769 30.1037 19.225 30.1218C19.24 30.1308 19.2551 30.1338 19.2731 30.1368L19.234 30.1278C19.246 30.1308 19.2551 30.1398 19.2641 30.1428C19.2941 30.1519 19.3152 30.1549 19.3542 30.1609C19.9493 30.3416 20.4272 29.9712 20.4272 29.9712L20.4542 29.9501L22.6723 27.9264L26.3901 30.7843L26.4742 30.8204C27.2496 31.1607 28.0341 30.971 28.4488 30.6367C28.8666 30.2994 29.0289 29.8688 29.0289 29.8688L29.0559 29.7995L31.9292 15.0525C32.0103 14.6881 32.0313 14.3478 31.9412 14.0165C31.851 13.6853 31.6196 13.3751 31.3401 13.2095C31.0576 13.0408 30.7781 12.9896 30.5196 13.0017ZM30.4414 14.5827C30.4384 14.6309 30.4475 14.6248 30.4264 14.7182V14.7272L27.5802 29.3207C27.5682 29.3418 27.5472 29.387 27.4901 29.4321C27.43 29.4803 27.3819 29.5104 27.1324 29.4111L22.5851 25.9178L19.8381 28.4263L20.4152 24.7343C20.4152 24.7343 27.5382 18.082 27.8447 17.7959C28.1513 17.5098 28.0491 17.4496 28.0491 17.4496C28.0701 17.1003 27.5862 17.3472 27.5862 17.3472L18.2182 23.1623L18.2152 23.1472L13.725 21.6325V21.6295C13.722 21.6295 13.716 21.6265 13.7129 21.6265C13.716 21.6265 13.737 21.6174 13.737 21.6174L13.761 21.6054L13.7851 21.5964C13.7851 21.5964 17.7944 19.9039 21.8698 18.1844C23.9105 17.3231 25.9663 16.4558 27.5472 15.7873C29.128 15.1217 30.2972 14.6339 30.3633 14.6068C30.4264 14.5827 30.3964 14.5827 30.4414 14.5827Z" fill="white"/>
</svg>
