<svg width="44" height="44" viewBox="0 0 44 44" fill="none" xmlns="http://www.w3.org/2000/svg">
<circle cx="22" cy="22" r="22" fill="#9C61FD"/>
<path d="M17.7147 16.3518C17.529 16.3247 17.3395 16.362 17.1779 16.4575H17.1641C16.7889 16.6774 16.4509 16.9554 16.1627 17.2811C15.9232 17.558 15.7932 17.8382 15.7591 18.1079C15.7387 18.2687 15.7525 18.4295 15.8004 18.5831L15.8175 18.5936C16.0872 19.3863 16.4396 20.1489 16.8701 20.8668C17.4247 21.8754 18.1071 22.8082 18.9006 23.6421L18.9242 23.6762L18.9616 23.7038L18.9852 23.7313L19.0128 23.755C19.8497 24.5507 20.7847 25.2364 21.7953 25.7952C22.9503 26.4239 23.6512 26.7212 24.0718 26.8446V26.8511C24.1952 26.8886 24.3074 26.9056 24.4203 26.9056C24.7788 26.8793 25.1182 26.7338 25.3843 26.4922C25.7085 26.2039 25.9834 25.8645 26.1981 25.4875V25.4809C26.3995 25.1016 26.3313 24.7426 26.0406 24.4998C25.4583 23.9909 24.8288 23.5389 24.1604 23.1499C23.7128 22.9071 23.2581 23.0541 23.0737 23.3002L22.6806 23.7956C22.4791 24.0417 22.1129 24.0076 22.1129 24.0076L22.1024 24.0142C19.3717 23.3166 18.6433 20.5518 18.6433 20.5518C18.6433 20.5518 18.6092 20.1758 18.8618 19.9842L19.354 19.5878C19.5896 19.3962 19.7537 18.942 19.501 18.4938C19.1148 17.8245 18.6637 17.1948 18.1544 16.6137C18.0431 16.4766 17.8868 16.3834 17.7134 16.3505L17.7147 16.3518Z" fill="white"/>
<path d="M22.3292 15.15C22.0531 15.15 21.8292 15.3739 21.8292 15.65C21.8292 15.9261 22.0531 16.15 22.3292 16.15C23.5937 16.15 24.6444 16.5633 25.4745 17.3547C25.9018 17.7881 26.2344 18.3011 26.4528 18.8625C26.672 19.426 26.7717 20.0269 26.7461 20.6288C26.7344 20.9046 26.9485 21.1378 27.2244 21.1495C27.5003 21.1613 27.7335 20.9471 27.7452 20.6712C27.7767 19.9308 27.6539 19.192 27.3847 18.5C27.1155 17.808 26.7058 17.1774 26.1807 16.6465L26.1707 16.6369C25.1407 15.6518 23.8351 15.15 22.3292 15.15Z" fill="white"/>
<path d="M22.2952 16.7943C22.0191 16.7943 21.7952 17.0182 21.7952 17.2943C21.7952 17.5705 22.0191 17.7943 22.2952 17.7943H22.3115C23.224 17.8586 23.8879 18.1628 24.3534 18.662C24.8299 19.1762 25.0767 19.8148 25.0584 20.605C25.052 20.881 25.2707 21.11 25.5467 21.1164C25.8228 21.1228 26.0518 20.9042 26.0582 20.6281C26.0822 19.5906 25.7485 18.696 25.0863 17.9816L25.0854 17.9807C24.4088 17.2546 23.4805 16.8705 22.3622 16.7954L22.3455 16.7943H22.2952Z" fill="white"/>
<path d="M22.2763 18.4687C22.0005 18.4542 21.7652 18.6659 21.7507 18.9417C21.7362 19.2175 21.948 19.4528 22.2237 19.4673C22.6424 19.4893 22.9092 19.6149 23.077 19.7843C23.2456 19.9545 23.3716 20.227 23.3946 20.6542C23.4095 20.93 23.645 21.1415 23.9208 21.1266C24.1965 21.1118 24.408 20.8763 24.3932 20.6005C24.3609 20.0005 24.1731 19.47 23.7876 19.0807C23.4013 18.6906 22.8738 18.5001 22.2763 18.4687Z" fill="white"/>
<path fill-rule="evenodd" clip-rule="evenodd" d="M16.8167 12.5335C19.9988 11.8222 23.2987 11.8222 26.4808 12.5335L26.8199 12.6093C28.7167 13.0332 30.2137 14.4881 30.6918 16.3719C31.4995 19.5548 31.4995 22.889 30.6918 26.0718C30.2137 27.9557 28.7166 29.4105 26.8199 29.8345L26.4808 29.9103C24.482 30.3571 22.4367 30.5232 20.4033 30.4087L17.7501 32.7826C17.5464 32.9649 17.2596 33.0219 17.0016 32.9314C16.7437 32.8409 16.5554 32.6172 16.5103 32.3475L16.0715 29.7262C14.3691 29.1972 13.0492 27.819 12.6058 26.0718C11.7981 22.889 11.7981 19.5548 12.6058 16.3719C13.0839 14.4881 14.5809 13.0332 16.4777 12.6093L16.8167 12.5335ZM26.1536 13.9973C23.187 13.3342 20.1106 13.3342 17.1439 13.9973L16.8049 14.0731C15.4601 14.3737 14.3987 15.4052 14.0597 16.7409C13.3134 19.6816 13.3134 22.7621 14.0597 25.7028C14.3987 27.0385 15.4601 28.07 16.8049 28.3706L16.8945 28.3906C17.1924 28.4572 17.4202 28.6977 17.4706 28.9987L17.7648 30.7567L19.6372 29.0814C19.7884 28.9461 19.9879 28.8778 20.1903 28.8922C22.1838 29.0333 24.1927 28.8847 26.1536 28.4464L26.4926 28.3706C27.8375 28.07 28.8989 27.0385 29.2379 25.7028C29.9841 22.7621 29.9841 19.6816 29.2379 16.7409C28.8989 15.4052 27.8375 14.3737 26.4926 14.0731L26.1536 13.9973Z" fill="white"/>
</svg>
