<svg width="44" height="44" viewBox="0 0 44 44" fill="none" xmlns="http://www.w3.org/2000/svg">
<circle cx="22" cy="22" r="22" fill="#72C30B"/>
<path d="M21.5111 12.0116C16.1861 12.2631 11.9839 16.6619 12 21.9499C12.005 23.5605 12.397 25.0806 13.0884 26.4238L12.0268 31.5357C11.9693 31.8122 12.2208 32.0544 12.4977 31.9893L17.5476 30.8026C18.8449 31.4436 20.3022 31.8139 21.8444 31.8372C27.2871 31.9197 31.8254 27.633 31.995 22.2363C32.1769 16.4514 27.3635 11.7351 21.5111 12.0116ZM27.5367 27.4111C26.0578 28.8781 24.0915 29.6859 22 29.6859C20.7754 29.6859 19.6029 29.4134 18.5151 28.8759L17.8119 28.5284L14.7158 29.256L15.3675 26.118L15.021 25.445C14.4563 24.348 14.17 23.1617 14.17 21.9192C14.17 19.8446 14.9844 17.8942 16.4633 16.4272C17.929 14.9734 19.9274 14.1524 22.0002 14.1524C24.0916 14.1524 26.0578 14.9603 27.5367 16.4272C29.0156 17.8941 29.8301 19.8445 29.8301 21.919C29.8301 23.9751 29.0024 25.9573 27.5367 27.4111Z" fill="white"/>
<path d="M26.8532 24.0703L24.9162 23.5186C24.6615 23.4461 24.3873 23.5178 24.2017 23.7053L23.7281 24.184C23.5283 24.3859 23.2253 24.4507 22.9609 24.3446C22.0446 23.9768 20.1171 22.2769 19.6249 21.4266C19.4829 21.1813 19.5063 20.8747 19.6807 20.6508L20.0943 20.1202C20.2563 19.9122 20.2905 19.633 20.1833 19.3926L19.3684 17.5644C19.1732 17.1265 18.609 16.999 18.2405 17.3082C17.6999 17.7617 17.0584 18.4509 16.9805 19.2145C16.843 20.5606 17.425 22.2576 19.626 24.2952C22.1687 26.6493 24.2049 26.9603 25.5306 26.6417C26.2826 26.461 26.8835 25.7368 27.2628 25.1438C27.5213 24.7394 27.3172 24.2025 26.8532 24.0703Z" fill="white"/>
</svg>
