<svg width="52" height="51" viewBox="0 0 52 51" fill="none" xmlns="http://www.w3.org/2000/svg">
<path fill-rule="evenodd" clip-rule="evenodd" d="M19.9187 0.0465403C19.4189 0.207111 19.192 0.423363 18.3416 1.55094C17.3216 2.90324 16.5128 4.23462 15.8239 5.69499L15.3242 6.75433L14.855 5.9207C13.9357 4.28721 12.7501 2.61706 12.1541 2.11553C11.7103 1.74209 11.1276 1.60483 10.606 1.75086C10.0773 1.89888 9.80595 2.15338 8.95748 3.29719C6.89457 6.07809 5.49874 9.15791 4.73782 12.6076L4.52904 13.5539L3.48474 13.6067C1.86857 13.6882 0.999481 14.2105 0.377719 15.4734L0.0498047 16.1395V32.2783V48.4171L0.266854 48.887C0.57126 49.5458 1.31903 50.3077 1.97974 50.6323L2.54004 50.9074L24.4043 50.9368C40.356 50.9583 46.4302 50.9358 46.8662 50.8536C48.7803 50.4929 50.4902 48.81 50.89 46.8932C51.0442 46.1536 51.0455 14.1333 50.8914 13.3844C50.7122 12.5141 50.1526 11.4932 49.4935 10.8341C47.474 8.81456 44.275 8.82342 42.2842 10.8542C41.6649 11.4858 41.1085 12.4577 40.9618 13.1639L40.8807 13.5539H34.0174H27.1541L26.9254 12.1593C26.4985 9.55555 25.7318 7.19401 24.585 4.94991C23.6017 3.02576 21.9 0.611823 21.2661 0.241675C20.9025 0.0294075 20.2613 -0.0634284 19.9187 0.0465403ZM20.991 2.42252C24.7165 7.2487 26.3551 14.0649 25.0436 19.2814C24.4557 21.6199 23.1501 23.214 21.4907 23.619L21.2168 23.6858V21.851C21.2168 20.1456 21.2026 20.001 21.0148 19.7995C20.7438 19.5085 20.3942 19.4343 20.0567 19.5962C19.583 19.8233 19.5265 20.0731 19.5249 21.9478L19.5234 23.668L19.2495 23.6037C18.7707 23.4911 17.8705 22.967 17.4944 22.5818L17.1309 22.2095L17.327 21.4428C18.1735 18.1328 17.9492 13.9023 16.7321 10.2222L16.3231 8.98558L16.6404 8.13203C17.0471 7.03802 18.0804 4.95429 18.6794 4.02036C19.0531 3.43774 20.3312 1.66101 20.3826 1.65254C20.3895 1.65145 20.6632 1.99789 20.991 2.42252ZM11.734 4.22993C15.4193 9.12075 16.9702 15.593 15.7225 20.8752C15.4537 22.0128 14.7719 23.4071 14.1534 24.0838C13.65 24.6346 12.7668 25.1804 12.1773 25.305L11.8535 25.3734V23.9078V22.4421L13.1484 21.1242C14.4727 19.7764 14.5722 19.6098 14.3275 19.1503C14.1533 18.8233 13.9324 18.6904 13.5569 18.6869C13.2587 18.6841 13.0895 18.8107 12.1392 19.7471L11.0601 20.8105L9.96971 19.7471C8.99104 18.7928 8.84233 18.6838 8.5191 18.6838C7.81655 18.6838 7.4481 19.3969 7.84494 19.9887C7.94037 20.1312 8.50047 20.729 9.08936 21.3172L10.1602 22.3868V23.8741V25.3614L9.88624 25.297C9.31677 25.1631 8.441 24.6092 7.93568 24.0635C6.57861 22.5977 5.88951 19.9197 6.00406 16.5565C6.11353 13.3394 6.9106 10.273 8.38183 7.40887C9.14385 5.92529 10.817 3.44352 11.0551 3.44352C11.1026 3.44352 11.4081 3.79743 11.734 4.22993ZM47.3441 11.3482C47.9888 11.6637 48.7378 12.4304 49.0398 13.084L49.2569 13.5539L49.2835 27.7731C49.298 35.5937 49.2869 41.9923 49.2588 41.9923C49.2306 41.9923 48.9943 41.8391 48.7336 41.6519C47.9487 41.0879 47.2917 40.8763 46.1537 40.8209C44.927 40.7613 44.1068 40.9709 43.1516 41.5883L42.5332 41.988V27.9136C42.5332 12.3405 42.4924 13.3184 43.1811 12.385C44.117 11.1164 45.9416 10.662 47.3441 11.3482ZM4.28321 16.9355C4.28321 21.0702 5.16903 23.8286 7.05882 25.5781C7.73617 26.2053 8.78914 26.7758 9.60683 26.9588L10.1525 27.0809L10.1813 31.5571L10.21 36.0332L10.5013 36.2837C10.7345 36.4842 10.8623 36.5229 11.1419 36.4776C11.8311 36.3657 11.7983 36.5893 11.8535 31.6183L11.9033 27.1282L12.6504 26.9116C13.0613 26.7925 13.6422 26.5622 13.9413 26.3998C14.6251 26.0287 15.6256 25.1024 16.0399 24.4568C16.2141 24.1853 16.3771 23.963 16.402 23.963C16.4269 23.963 16.6127 24.0954 16.815 24.2573C17.356 24.6904 18.2985 25.1404 18.9507 25.2773L19.5234 25.3974L19.5249 29.7354C19.526 33.0052 19.557 34.134 19.6508 34.3194C19.9076 34.8269 20.4785 34.9416 20.9678 34.5839C21.1606 34.4428 21.1686 34.2933 21.2168 29.9329L21.2666 25.4276L21.8927 25.2563C25.079 24.3843 26.896 21.3529 27.1606 16.4674L27.224 15.297H28.5053H29.7867L29.76 26.1296C29.7302 38.2425 29.7903 37.2899 29.0193 37.8783L28.6536 38.1574L24.2131 38.2146C20.0393 38.2682 19.7294 38.2846 19.0558 38.4873C17.4183 38.98 16.2644 39.681 15.1205 40.8783C14.2333 41.807 13.6271 42.785 13.2405 43.9119C12.8469 45.059 12.7516 45.7852 12.7508 47.6452L12.75 49.2638H7.92542C4.75884 49.2638 3.00452 49.2274 2.82044 49.1578C2.43884 49.0137 1.99637 48.5839 1.83052 48.1962C1.71597 47.9286 1.69376 45.3016 1.69555 32.2587C1.69764 17.2442 1.70492 16.626 1.88312 16.2335C2.05385 15.8576 2.42101 15.5072 2.78906 15.369C2.87124 15.3381 3.24109 15.3092 3.61084 15.3049L4.28321 15.297V16.9355ZM35.6374 26.6276L35.6104 37.9582L35.3435 38.6888C34.6047 40.7113 33.1019 42.2098 31.0899 42.9302L30.2315 43.2375L25.7988 43.2913C21.9453 43.3383 21.3094 43.3675 20.9319 43.515C20.0024 43.878 19.2773 44.6118 18.9297 45.5411C18.7565 46.004 18.7266 46.3177 18.7266 47.6739V49.2638H16.5731H14.4198L14.4653 47.3463C14.5074 45.5696 14.5314 45.3678 14.7925 44.5969C15.4784 42.5712 17.0973 40.9489 19.1349 40.2457L19.9717 39.9569L24.4541 39.9038C28.791 39.8524 28.9518 39.8437 29.4064 39.6337C30.1071 39.31 30.807 38.6027 31.1399 37.8819L31.4268 37.2609L31.4538 26.279L31.4809 15.297H33.5726H35.6643L35.6374 26.6276ZM40.8633 31.2096C40.8888 46.597 40.8959 47.1371 41.0792 47.5705C41.1835 47.817 41.4413 48.2816 41.652 48.6028C41.8628 48.9241 42.0352 49.2043 42.0352 49.2254C42.0352 49.2465 37.1717 49.2638 31.2276 49.2638H20.4199V47.8163C20.4199 46.2278 20.4963 45.9078 20.9804 45.4673C21.4934 45.0005 21.6934 44.9806 25.8547 44.9806C30.153 44.9806 30.6277 44.9354 32.031 44.3928C34.5258 43.4282 36.5211 41.1334 37.1496 38.506C37.347 37.6809 37.3521 37.3751 37.3528 26.4782L37.3535 15.297H39.0952H40.8369L40.8633 31.2096ZM3.80797 42.557C3.46153 42.6965 3.38672 43.1448 3.38672 45.0829V46.9882L3.67788 47.2793L3.96904 47.5705H5.87427C8.23252 47.5705 8.4668 47.4883 8.4668 46.6613C8.4668 46.4806 8.37187 46.2712 8.22226 46.1216C7.98509 45.8844 7.93439 45.8771 6.5289 45.8771H5.08008V44.4283C5.08008 43.0228 5.07281 42.9721 4.83554 42.7349C4.60106 42.5004 4.14495 42.4215 3.80797 42.557ZM47.4972 42.8873C48.1943 43.2597 48.6882 43.7932 49.0273 44.5403C49.3357 45.2197 49.3363 46.5143 49.0284 47.1978C48.7311 47.8579 47.9916 48.613 47.327 48.9347C46.5702 49.3013 45.3307 49.3237 44.5832 48.9844C43.8354 48.6451 43.3025 48.1515 42.9309 47.4543C42.6486 46.9248 42.5881 46.6954 42.5542 46.0265C42.4986 44.9271 42.7592 44.2406 43.5218 43.4781C44.2893 42.7105 44.8929 42.4789 46.0196 42.5198C46.7584 42.5465 46.9466 42.5934 47.4972 42.8873Z" fill="#FFA723"/>
</svg>
