<svg width="51" height="51" viewBox="0 0 51 51" fill="none" xmlns="http://www.w3.org/2000/svg">
<path fill-rule="evenodd" clip-rule="evenodd" d="M9.5625 6.05078C4.87837 9.39746 0.989918 12.2097 0.921387 12.3002C0.832037 12.4183 0.796875 12.9944 0.796875 14.3428C0.796875 16.2039 0.799066 16.223 1.04142 16.4652C1.40629 16.8301 1.75591 16.7802 2.46872 16.2615C2.80759 16.015 3.10791 15.8133 3.1361 15.8133C3.16439 15.8133 3.1875 19.2424 3.1875 23.4334V31.0535H1.83829C0.538488 31.0535 0.480018 31.0625 0.244541 31.2981L0 31.5425V37.0301V42.5177L0.244541 42.7621C0.445254 42.9629 0.587695 43.0067 1.04142 43.0067H1.59375V44.3839C1.59375 46.3351 1.35479 46.1942 4.66311 46.1942C7.11161 46.1942 7.27148 46.2052 7.27148 46.3741C7.27148 46.7317 7.69453 47.7951 8.06437 48.3673C8.77489 49.4665 9.80037 50.269 11.0377 50.6939C11.9826 51.0184 13.5174 51.0184 14.4623 50.6939C15.6996 50.269 16.7251 49.4665 17.4356 48.3673C17.8055 47.7951 18.2285 46.7317 18.2285 46.3741C18.2285 46.2021 18.5698 46.1942 25.8984 46.1942C33.2271 46.1942 33.5684 46.2021 33.5684 46.3741C33.5684 46.7317 33.9914 47.7951 34.3612 48.3673C35.0718 49.4665 36.0972 50.269 37.3346 50.6939C38.2795 51.0184 39.8143 51.0184 40.7592 50.6939C41.9965 50.269 43.022 49.4665 43.7325 48.3673C44.1024 47.7951 44.5254 46.7317 44.5254 46.3741C44.5254 46.2046 44.6991 46.1942 47.5182 46.1942H50.511L50.7555 45.9496C50.998 45.7072 51 45.6897 51 43.8035C51 41.9173 50.998 41.8999 50.7555 41.6575C50.621 41.523 50.4417 41.4129 50.357 41.4129C50.2205 41.4129 50.2031 40.9087 50.2031 36.9467V32.4806L47.754 27.1601C46.4071 24.2339 45.2143 21.7612 45.1034 21.6653C44.9165 21.5037 44.4863 21.491 39.1852 21.491H33.4688V18.6522C33.4688 17.0908 33.4919 15.8133 33.5201 15.8133C33.5483 15.8133 33.8487 16.015 34.1875 16.2615C34.9003 16.7802 35.25 16.8301 35.6148 16.4652C35.8573 16.2229 35.8594 16.2044 35.8594 14.3347C35.8594 12.6805 35.838 12.4243 35.6851 12.2502C35.5891 12.1409 31.7231 9.34805 27.0938 6.04371C21.368 1.95684 18.5812 0.0246145 18.3779 0.00080788C18.1188 -0.029573 16.9456 0.77557 9.5625 6.05078ZM26.3116 7.4498L34.2656 13.1312V13.7366C34.2656 14.3417 34.2655 14.342 34.0415 14.1949C33.9182 14.1141 30.4107 11.6101 26.2471 8.63047C19.7031 3.94753 18.6294 3.21311 18.3281 3.21311C18.0268 3.21311 16.9531 3.94753 10.4092 8.63047C6.24551 11.6101 2.73806 14.1141 2.61475 14.1949C2.39072 14.342 2.39062 14.3417 2.39062 13.7367V13.1313L10.3345 7.45269C14.7036 4.32943 18.2962 1.77276 18.318 1.77127C18.3397 1.76967 21.9369 4.32505 26.3116 7.4498ZM25.1016 9.7687L31.8252 14.5758L31.8507 22.8146L31.8762 31.0535H26.6959H21.5156V26.5168V21.98L21.2711 21.7356L21.0266 21.491H18.3281H15.6296L15.3852 21.7356L15.1406 21.98V26.5168V31.0535H9.96034H4.78005L4.80555 22.8146L4.83105 14.5758L11.5547 9.7687C15.2527 7.12477 18.3007 4.96155 18.3281 4.96155C18.3555 4.96155 21.4036 7.12477 25.1016 9.7687ZM17.3619 10.5142C16.2799 10.9008 15.5904 11.6279 15.274 12.7159C14.9784 13.7329 15.3137 14.9838 16.0902 15.7602C17.3014 16.9713 19.3549 16.9713 20.566 15.7602C21.7771 14.5491 21.7771 12.4955 20.566 11.2844C19.7558 10.4742 18.3916 10.1462 17.3619 10.5142ZM19.2562 12.2565C20.2266 12.9966 20.0726 14.4394 18.9671 14.9639C17.9046 15.4682 16.6275 14.5395 16.7605 13.3594C16.8961 12.156 18.307 11.5325 19.2562 12.2565ZM6.76477 17.6344C6.4005 17.9141 6.375 18.1403 6.375 21.0926C6.375 24.0449 6.4005 24.2711 6.76477 24.5508C6.99069 24.7243 12.9312 24.7243 13.1571 24.5508C13.5214 24.2711 13.5469 24.0449 13.5469 21.0926C13.5469 18.1403 13.5214 17.9141 13.1571 17.6344C12.9312 17.4609 6.99069 17.4609 6.76477 17.6344ZM23.3719 17.7692L23.1094 18.0319V21.0926V24.1533L23.3719 24.416L23.6346 24.6785L26.684 24.6753C29.8884 24.6721 29.9228 24.6675 30.1654 24.212C30.3278 23.9071 30.3278 18.2781 30.1654 17.9732C29.9228 17.5177 29.8884 17.5131 26.684 17.5098L23.6346 17.5067L23.3719 17.7692ZM11.9531 21.0926V23.0848H9.96094H7.96875V21.0926V19.1004H9.96094H11.9531V21.0926ZM28.6875 21.0926V23.0848H26.6953H24.7031V21.0926V19.1004H26.6953H28.6875V21.0926ZM19.9219 27.0692V31.0535H18.3281H16.7344V27.0692V23.0848H18.3281H19.9219V27.0692ZM35.8797 26.6956C35.9104 30.1996 35.9181 30.3234 36.1416 30.8794C36.5735 31.9538 37.3457 32.7181 38.4614 33.175C38.9841 33.3891 39.1129 33.3951 43.8032 33.4237L48.6094 33.4531V35.4408C48.6094 37.0529 48.5837 37.4285 48.4735 37.4285C48.2352 37.4285 47.8125 37.9381 47.8125 38.2254C47.8125 38.5127 48.2352 39.0223 48.4735 39.0223C48.5807 39.0223 48.6094 39.2746 48.6094 40.2176V41.4129H48.1658C47.5846 41.4129 47.2556 41.5721 47.1099 41.9239C46.9578 42.2911 47.1247 42.7344 47.4753 42.8941C47.6111 42.9561 48.1012 43.0067 48.5643 43.0067H49.4062V43.8035V44.6004H46.9658C44.6793 44.6004 44.5254 44.5891 44.5254 44.4205C44.5254 44.0629 44.1024 42.9995 43.7325 42.4272C43.022 41.328 41.9965 40.5256 40.7592 40.1007C39.8143 39.7761 38.2795 39.7761 37.3346 40.1007C36.0972 40.5256 35.0718 41.328 34.3612 42.4272C33.9914 42.9995 33.5684 44.0629 33.5684 44.4205C33.5684 44.5924 33.2271 44.6004 25.8984 44.6004C18.5698 44.6004 18.2285 44.5924 18.2285 44.4205C18.2285 44.0629 17.8055 42.9995 17.4356 42.4272C16.7251 41.328 15.6996 40.5256 14.4623 40.1007C13.9327 39.9188 13.5812 39.8718 12.75 39.8718C11.9188 39.8718 11.5673 39.9188 11.0377 40.1007C9.80037 40.5256 8.77489 41.328 8.06437 42.4272C7.69453 42.9995 7.27148 44.0629 7.27148 44.4205C7.27148 44.5882 7.13193 44.6004 5.22949 44.6004H3.1875V43.8035V43.0067H4.12024C4.99511 43.0067 5.06922 42.9904 5.31555 42.7441C5.65592 42.4037 5.65592 42.0158 5.31555 41.6755L5.05289 41.4129H3.32337H1.59375V37.0301V32.6473H16.7344H31.875V34.3769V36.1064L32.1376 36.3691C32.5486 36.78 33.0722 36.692 33.3529 36.1651C33.4376 36.0061 33.4688 34.2146 33.4688 29.5162V23.0848H34.6584H35.848L35.8797 26.6956ZM46.1236 27.4178C47.2129 29.7736 48.1057 31.7346 48.1076 31.7757C48.1097 31.8168 46.1503 31.8494 43.7534 31.8482C39.5848 31.8461 39.3761 31.8373 38.9473 31.6431C38.3453 31.3707 37.9735 31.0046 37.6905 30.4061C37.4573 29.9128 37.455 29.8753 37.4541 26.4951L37.4531 23.0821L40.7981 23.1084L44.1432 23.1346L46.1236 27.4178ZM13.6784 41.5618C15.2925 41.9823 16.3473 43.127 16.6576 44.795C16.8727 45.9523 16.4288 47.3061 15.5438 48.1911C14.6588 49.0761 13.305 49.52 12.1478 49.3049C10.3798 48.9761 9.17124 47.7675 8.84242 45.9995C8.62876 44.8502 9.07113 43.4886 9.94092 42.6187C10.958 41.6017 12.3356 41.2121 13.6784 41.5618ZM39.9752 41.5618C41.5894 41.9823 42.6442 43.127 42.9545 44.795C43.1696 45.9523 42.7256 47.3061 41.8407 48.1911C40.9557 49.0761 39.6019 49.52 38.4446 49.3049C36.6767 48.9761 35.4681 47.7675 35.1393 45.9995C34.9256 44.8502 35.368 43.4886 36.2378 42.6187C37.2549 41.6017 38.6325 41.2121 39.9752 41.5618ZM11.8037 43.244C9.90047 44.1438 9.90047 46.6508 11.8037 47.5505C12.0975 47.6894 12.4856 47.7859 12.75 47.7859C13.2866 47.7859 14.0836 47.4334 14.4624 47.0285C15.137 46.3073 15.3081 45.3074 14.9033 44.451C14.3159 43.2086 12.9795 42.6882 11.8037 43.244ZM38.1006 43.244C37.502 43.527 37.136 43.8989 36.8635 44.5008C36.4935 45.3183 36.6822 46.3313 37.3345 47.0285C37.7133 47.4334 38.5103 47.7859 39.0469 47.7859C39.5835 47.7859 40.3804 47.4334 40.7593 47.0285C41.4339 46.3073 41.6049 45.3074 41.2001 44.451C40.6127 43.2086 39.2764 42.6882 38.1006 43.244ZM13.1571 44.7281C13.5979 45.0665 13.6289 45.6188 13.228 45.9922C12.6582 46.5231 11.7451 45.841 12.0478 45.1105C12.2322 44.6652 12.8139 44.4646 13.1571 44.7281ZM39.5183 44.7962C39.8076 45.0658 39.883 45.3609 39.7466 45.6901C39.5185 46.2407 38.8777 46.3324 38.452 45.8753C37.8348 45.2129 38.8562 44.1794 39.5183 44.7962Z" fill="#FFA723"/>
</svg>
