<svg width="50" height="50" viewBox="0 0 50 50" fill="none" xmlns="http://www.w3.org/2000/svg">
<path fill-rule="evenodd" clip-rule="evenodd" d="M13.7695 0.126543C10.24 0.681425 7.35703 2.61502 6.00986 5.33094C5.42412 6.5118 5.1873 7.62332 5.25566 8.87117C5.32295 10.1009 5.50488 10.8152 6.0082 11.8255C6.66074 13.1352 7.73398 14.3417 9.02119 15.2124C9.70605 15.6756 11.1907 16.4026 11.8408 16.593L12.2559 16.7146V18.5155V20.3165L12.6003 20.6609C12.9049 20.9655 12.986 20.9985 13.303 20.9471C13.5001 20.9151 13.7736 20.7768 13.9107 20.6398C14.156 20.3949 14.1606 20.3623 14.1911 18.7208L14.2222 17.0509L14.5817 17.1103C14.7796 17.143 15.2359 17.1703 15.5958 17.1709L16.2502 17.1719L16.2794 19.6056C16.3084 22.0244 16.3101 22.0409 16.5439 22.2897C17.007 22.7823 17.8384 22.6722 18.1069 22.0829C18.1742 21.9351 18.2129 20.9449 18.2129 19.3683V16.8865L18.6279 16.7818C20.5326 16.3013 21.8813 15.5246 23.9433 13.7205C24.4446 13.2819 25.0091 12.9064 25.5859 12.6278C27.1562 11.8693 26.6342 11.8985 38.6174 11.8985H49.2645L49.5834 11.6136L49.9023 11.3286V8.5782V5.82781L49.5834 5.54285L49.2645 5.25789H38.6174C26.6342 5.25789 27.1562 5.28709 25.5859 4.52859C25.004 4.24754 24.4504 3.8783 23.9476 3.43592C22.1018 1.8117 20.6119 0.920683 18.9941 0.473222C17.2921 0.00251913 15.3701 -0.12502 13.7695 0.126543ZM17.9393 2.21941C19.6977 2.67752 20.9402 3.35086 22.2229 4.5407C23.5287 5.75193 24.7798 6.47391 26.3701 6.93396L27.1484 7.15906L37.5732 7.18797L47.998 7.21687V8.5782V9.93953L37.5732 9.96844L27.1484 9.99734L26.3672 10.2207C24.764 10.679 23.6118 11.3735 21.7744 12.9891C21.0129 13.6588 19.8973 14.3053 18.9282 14.6387C18.6254 14.7429 18.3405 14.8282 18.2952 14.8282C18.25 14.8282 18.2129 14.5081 18.2129 14.1168V13.4053L18.8232 13.1025C20.5483 12.2468 21.6503 10.8723 21.9312 9.22635C22.5332 5.69783 18.4279 2.62928 14.1932 3.44236C9.50625 4.34236 7.57861 8.7868 10.5461 11.8512C10.8688 12.1844 11.3855 12.5992 11.6943 12.773L12.2559 13.089V13.8676C12.2559 14.7798 12.3132 14.7666 11.0604 14.143C6.9834 12.1136 5.94971 7.76043 8.81104 4.67C10.079 3.30047 11.9245 2.37723 14.0708 2.03885C14.9812 1.89529 17.0692 1.99275 17.9393 2.21941ZM16.7761 5.40174C17.7272 5.6033 18.6095 6.0698 19.18 6.67303C19.9729 7.5114 20.2069 8.34441 19.9235 9.31931C19.7873 9.78806 19.6464 9.99695 19.0939 10.5494C18.7279 10.9154 18.3799 11.2149 18.3206 11.2149C18.2488 11.2149 18.2129 10.8704 18.2129 10.1831C18.2129 9.6156 18.1638 9.05535 18.1038 8.93797C17.7148 8.17732 16.6367 8.20945 16.3647 8.98982C16.307 9.15545 16.2598 9.87762 16.2598 10.5947V11.8985L15.6494 11.8969C13.176 11.8899 11.084 10.3692 11.084 8.5782C11.084 6.4239 13.9781 4.80887 16.7761 5.40174ZM15.6006 13.8506L16.2598 13.8516V14.5352V15.2188H15.6875C15.3727 15.2188 14.9112 15.1909 14.6621 15.1567L14.209 15.0946V14.4115V13.7284L14.5752 13.7889C14.7767 13.8222 15.238 13.85 15.6006 13.8506ZM42.4143 14.7554C42.0393 15.0697 41.2101 16.2086 40.9585 16.7549C40.8048 17.0885 40.7306 17.4766 40.6973 18.1218C40.6374 19.2809 40.8733 20.0076 41.6177 20.9564C42.5206 22.1075 42.6759 22.4195 42.6748 23.0802C42.674 23.5449 42.6074 23.8001 42.3527 24.3138C41.9791 25.0675 42.0001 25.3387 42.4619 25.7274C42.7088 25.935 42.833 25.9721 43.1425 25.9306C43.6176 25.867 43.8007 25.7011 44.1669 25.0034C44.9664 23.48 44.8042 21.9186 43.6983 20.4923C42.8205 19.36 42.6977 19.1431 42.6493 18.6399C42.5745 17.8612 42.6899 17.5364 43.3621 16.6348C43.8567 15.9714 43.9941 15.7131 43.9941 15.4467C43.9941 14.6776 43.0171 14.2502 42.4143 14.7554ZM4.48359 19.364C4.14248 19.5098 3.06787 20.8734 2.74775 21.5665C2.58193 21.9256 2.54434 22.2027 2.54199 23.0822C2.53926 24.1013 2.55576 24.1921 2.85371 24.7912C3.02676 25.1391 3.40859 25.723 3.70225 26.0886C4.64492 27.2623 4.74121 27.8948 4.16045 29.099C3.81016 29.8253 3.82061 30.0975 4.21299 30.4661C4.50273 30.7384 5.07305 30.7703 5.43291 30.5344C5.74023 30.3332 6.23867 29.3889 6.39707 28.7085C6.52627 28.1534 6.48428 27.2401 6.30117 26.6224C6.19922 26.2786 5.65488 25.4241 4.86377 24.3658C4.60488 24.0195 4.49854 23.767 4.46514 23.4191C4.39053 22.6427 4.5085 22.3114 5.17949 21.4113C5.91592 20.4236 5.98301 20.0926 5.54199 19.6243C5.21348 19.2756 4.88145 19.1939 4.48359 19.364ZM16.8945 24.1002C16.2879 24.3485 16.1075 25.1695 16.5602 25.6222C16.6962 25.7582 16.9687 25.8956 17.1657 25.9276C17.4827 25.979 17.5639 25.946 17.8685 25.6414C18.332 25.1778 18.3356 24.7947 17.8809 24.3399C17.5476 24.0066 17.2812 23.9419 16.8945 24.1002ZM36.5617 26.5143L35.7925 27.2631L32.447 26.943C28.2452 26.5411 28.2317 26.5408 27.9337 26.8456C27.8054 26.9767 27.407 27.5894 27.0484 28.2071C26.6897 28.8248 26.3775 29.3498 26.3545 29.3737C26.3314 29.3976 25.9953 29.1058 25.6075 28.7253C24.4751 27.6138 23.8317 27.3071 22.6528 27.3161C21.6182 27.3241 21.0503 27.6092 19.9239 28.6861C19.3849 29.2014 18.8024 29.7511 18.6297 29.9076L18.3155 30.192L17.1335 29.0441C15.6225 27.5769 15.2367 27.377 13.916 27.377C12.3813 27.377 12.3609 27.3912 8.7957 30.9373L5.76172 33.9549L3.95508 33.9863C2.35273 34.0141 2.09707 34.0415 1.69443 34.2275C1.11406 34.4958 0.478125 35.1317 0.209863 35.7121C0.00253906 36.1605 0 36.2376 0 41.9766C0 47.7157 0.00253906 47.7927 0.209863 48.2412C0.478125 48.8216 1.11406 49.4575 1.69443 49.7258L2.14844 49.9356H24.9512H47.7539L48.2079 49.7258C48.7883 49.4575 49.4242 48.8216 49.6925 48.2412C49.8998 47.7927 49.9023 47.7157 49.9023 41.9766C49.9023 36.2376 49.8998 36.1605 49.6925 35.7121C49.4238 35.1309 48.7875 34.4952 48.2079 34.2287C47.8187 34.0498 47.5341 34.0151 46.2158 33.9858L44.6777 33.9516V31.5204V29.0891L44.4092 28.7962C44.0512 28.4057 38.1853 25.7657 37.6758 25.7657C37.3781 25.7657 37.2261 25.8679 36.5617 26.5143ZM40.4541 28.9952L42.7246 30.0073V31.9881V33.9688H37.2809H31.8371L34.8639 30.938C36.7248 29.0746 37.9471 27.9218 38.0371 27.9451C38.1177 27.966 39.2053 28.4385 40.4541 28.9952ZM31.8848 28.8481C32.9321 28.9418 33.8211 29.0459 33.8604 29.0795C33.8995 29.1131 33.042 30.0294 31.9548 31.1156L29.978 33.0906L28.8707 31.9801L27.7633 30.8696L28.4274 29.7223L29.0916 28.5752L29.536 28.6265C29.7805 28.6549 30.8374 28.7546 31.8848 28.8481ZM23.5375 29.4552C23.6437 29.5139 24.7188 30.5535 25.927 31.7654L28.1233 33.9688H25.0953H22.0673L20.8985 32.797L19.7298 31.6253L20.7536 30.5932C21.3167 30.0257 21.8652 29.5126 21.9727 29.4531C22.4361 29.1967 23.0716 29.1975 23.5375 29.4552ZM14.5801 29.4213C14.7251 29.4983 15.8321 30.553 17.0402 31.765L19.2366 33.9688H13.916H8.59541L10.7431 31.8104C11.9242 30.6232 13.0225 29.5687 13.1836 29.467C13.5338 29.246 14.2081 29.2239 14.5801 29.4213ZM47.6784 36.2413C47.9344 36.497 47.9511 36.5678 47.9825 37.5352L48.0158 38.5587H42.338C36.2625 38.5587 36.247 38.5598 35.9893 39.0416C35.8602 39.2828 35.8602 39.7877 35.9893 40.0289C36.247 40.5106 36.2629 40.5118 42.3327 40.5118H48.0052L47.9771 43.9764L47.9492 47.4412L47.6784 47.7118L47.4077 47.9825H24.9409H2.47422L2.18926 47.6635C1.9043 47.3447 1.9043 47.3445 1.9043 46.0301V44.7157L7.46855 44.6889L13.0328 44.6622L13.2884 44.4065C13.7459 43.9489 13.5713 43.0772 12.9769 42.8511C12.8315 42.796 10.5205 42.7579 7.31396 42.7579H1.89648L1.9248 39.643C1.95166 36.6871 1.96309 36.5171 2.14844 36.3112C2.25586 36.1919 2.43164 36.0581 2.53906 36.0139C2.64648 35.9698 12.7858 35.942 25.071 35.9522L47.4077 35.9708L47.6784 36.2413ZM15.5273 42.8663C14.8 43.2845 14.8188 44.2295 15.562 44.6108C16.2722 44.9753 17.1233 44.1588 16.8113 43.4124C16.7395 43.2404 16.6118 43.0426 16.5277 42.9729C16.3105 42.7927 15.7576 42.7339 15.5273 42.8663Z" fill="#FFA723"/>
</svg>
