<svg width="52" height="48" viewBox="0 0 52 48" fill="none" xmlns="http://www.w3.org/2000/svg">
<path fill-rule="evenodd" clip-rule="evenodd" d="M24.8066 0.274634C24.5631 0.433112 21.9208 2.56137 18.935 5.00409C14.9339 8.27755 13.4968 9.40095 13.4698 9.27574C13.4498 9.1823 13.5131 9.05998 13.6106 9.0038C13.7082 8.94762 13.9264 8.78227 14.0954 8.63625L14.4028 8.37069L14.4355 7.07387C14.4624 6.00795 14.4378 5.71311 14.2975 5.41757C13.9881 4.76562 14.005 4.76791 9.62157 4.76791C4.52815 4.76791 4.79052 4.65556 4.79052 6.837C4.79052 8.51861 4.89879 8.76006 5.76171 9.00181L5.98583 9.06457V12.3245V15.5845L3.13621 17.9095C1.05049 19.6112 0.249428 20.3234 0.147926 20.5664C-0.0540819 21.0498 -0.0473085 23.9926 0.156691 24.3871C0.471955 24.9968 1.13824 25.2909 1.74805 25.0897C1.93771 25.0271 2.5766 24.5786 3.16778 24.0931L4.24267 23.2104L4.29247 34.6332L4.34228 46.056L4.5913 46.4999C4.72826 46.7439 5.03466 47.0801 5.27223 47.2469L5.70414 47.5502H25.5093H45.3144L45.7463 47.2469C45.9839 47.0801 46.2903 46.7439 46.4272 46.4999L46.6763 46.056L46.7261 34.6332L46.7759 23.2104L47.8467 24.0898C49.2333 25.2286 49.646 25.3806 50.288 24.9891C50.9318 24.5967 51.0085 24.334 51.0089 22.5201C51.0092 21.3612 50.9698 20.8037 50.871 20.5674C50.7171 20.1989 48.6024 18.3955 48.0364 18.1499C47.7403 18.0214 47.6762 18.0231 47.4592 18.1654C47.1107 18.3937 46.9657 18.7533 47.1018 19.0518C47.1617 19.1833 47.7283 19.7099 48.3609 20.2222L49.5112 21.1537L49.5132 22.3395C49.515 23.4601 49.5056 23.5171 49.3408 23.3745C48.1271 22.3234 26.239 4.53911 26.0195 4.42556C25.6392 4.22893 25.3794 4.22893 24.9991 4.42556C24.7789 4.53941 2.87603 22.336 1.67454 23.3773C1.5053 23.524 1.49833 23.4748 1.52512 22.3327L1.55321 21.1343L13.5315 11.3558L25.5099 1.57723L34.7163 9.09455C39.7798 13.229 44.131 16.7708 44.3857 16.9653C44.9536 17.3987 45.3318 17.4266 45.6231 17.0562C45.8907 16.7161 45.8848 16.3938 45.6055 16.0895C45.2932 15.7494 26.5161 0.449448 26.0982 0.194647C25.6384 -0.0857534 25.3315 -0.0667279 24.8066 0.274634ZM26.0073 6.26206L26.4556 6.65452H25.5093H24.563L25.0112 6.26206C25.2578 6.0462 25.4819 5.86959 25.5093 5.86959C25.5367 5.86959 25.7608 6.0462 26.0073 6.26206ZM12.9585 6.90952V7.55698H9.62157H6.28466V6.90952V6.26206H9.62157H12.9585V6.90952ZM29.5921 9.17792L30.836 10.1966L28.1726 10.2231C26.7078 10.2378 24.3108 10.2378 22.8459 10.2231L20.1826 10.1966L21.4265 9.17792L22.6704 8.15932H25.5093H28.3481L29.5921 9.17792ZM11.9624 9.88027V10.7094L10.1986 12.1464C9.22851 12.9367 8.21997 13.7553 7.9574 13.9653L7.47997 14.3474V11.6992V9.05112H9.72118H11.9624V9.88027ZM34.0124 12.7889L35.2939 13.8324H25.5093H15.7246L17.0061 12.7889L18.2876 11.7454H25.5093H32.7309L34.0124 12.7889ZM38.3685 16.348L39.6233 17.3685L27.7878 17.4183C16.117 17.4674 15.9496 17.4709 15.7579 17.6673C15.4491 17.9837 15.4449 18.4106 15.7475 18.7132C15.9447 18.9104 16.0795 18.9124 28.7252 18.9124H41.5034L42.7545 19.9334L44.0056 20.9544L34.7575 20.9798C29.6709 20.9938 21.3476 20.9938 16.261 20.9798L7.0129 20.9544L8.264 19.9334L9.51509 18.9124H11.2553C12.9049 18.9124 13.0075 18.9012 13.226 18.6959C13.5225 18.4174 13.5336 17.9174 13.2491 17.66C13.0942 17.5197 12.8332 17.459 12.2173 17.4204L11.3929 17.3685L12.6489 16.348L13.9048 15.3275H25.5093H37.1138L38.3685 16.348ZM12.3608 22.5522C12.3608 22.5818 12.2662 22.7914 12.1506 23.018C12.0349 23.2448 11.9167 23.6912 11.8877 24.0103L11.8351 24.5902H8.81085H5.78661V23.5443V22.4984H9.07372C10.8816 22.4984 12.3608 22.5226 12.3608 22.5522ZM36.2947 22.604C36.7629 22.734 37.3491 23.2383 37.527 23.664C37.6373 23.928 37.6616 25.9823 37.6616 35.046V46.1058H37.313H36.9643V35.0626V24.0194L36.7484 23.7449C36.2985 23.1729 36.7638 23.1957 25.5093 23.1957C14.2547 23.1957 14.7201 23.1729 14.2701 23.7449L14.0542 24.0194V35.0626V46.1058H13.7056H13.3569V35.046C13.3569 22.9865 13.326 23.6319 13.9311 23.0633C14.5459 22.4855 14.0936 22.5075 25.4595 22.5033C32.4637 22.5008 36.0428 22.534 36.2947 22.604ZM45.2319 23.5443V24.5902H42.2077H39.1834L39.1308 24.0103C39.1019 23.6912 38.9836 23.2448 38.868 23.018C38.7523 22.7914 38.6577 22.5818 38.6577 22.5522C38.6577 22.5226 40.1369 22.4984 41.9448 22.4984H45.2319V23.5443ZM24.7124 35.3978V46.1058H20.1304H15.5483V35.3978V24.6898H20.1304H24.7124V35.3978ZM35.4702 35.3978V46.1058H30.8882H26.3061V35.3978V24.6898H30.8882H35.4702V35.3978ZM11.8628 27.1302V28.1761H8.8247H5.78661V27.1302V26.0843H8.8247H11.8628V27.1302ZM45.2319 27.1302V28.1761H42.1938H39.1557V27.1302V26.0843H42.1938H45.2319V27.1302ZM11.8628 30.7162V31.7621H8.8247H5.78661V30.7162V29.6703H8.8247H11.8628V30.7162ZM45.2319 30.7162V31.7621H42.1938H39.1557V30.7162V29.6703H42.1938H45.2319V30.7162ZM27.5086 33.3486C27.1131 33.7442 27.0967 35.5852 27.4854 35.9738C27.7527 36.2412 28.2482 36.2393 28.5176 35.97C28.68 35.8075 28.7362 35.5978 28.7737 35.015C28.832 34.1043 28.7478 33.606 28.492 33.3502C28.2441 33.1024 27.7557 33.1016 27.5086 33.3486ZM11.8628 34.3021V35.348H8.8247H5.78661V34.3021V33.2562H8.8247H11.8628V34.3021ZM45.2319 34.3021V35.348H42.1938H39.1557V34.3021V33.2562H42.1938H45.2319V34.3021ZM11.8628 37.888V38.9339H8.8247H5.78661V37.888V36.8421H8.8247H11.8628V37.888ZM45.2319 37.888V38.9339H42.1938H39.1557V37.888V36.8421H42.1938H45.2319V37.888ZM11.8628 41.474V42.5199H8.8247H5.78661V41.474V40.4281H8.8247H11.8628V41.474ZM45.2319 41.474V42.5199H42.1938H39.1557V41.474V40.4281H42.1938H45.2319V41.474ZM11.8628 45.0599V46.1058H9.04294C6.76547 46.1058 6.18595 46.0786 6.02976 45.9645C5.86819 45.8464 5.83074 45.6745 5.80165 44.9186L5.76679 44.014H8.81484H11.8628V45.0599ZM45.2169 44.9186C45.1878 45.6745 45.1503 45.8464 44.9888 45.9645C44.8326 46.0786 44.2531 46.1058 41.9756 46.1058H39.1557V45.0599V44.014H42.2037H45.2517L45.2169 44.9186Z" fill="#FFA723"/>
</svg>
