<svg width="54" height="58" viewBox="0 0 54 58" fill="none" xmlns="http://www.w3.org/2000/svg">
<path d="M36.9393 56.4866C36.9581 56.6537 36.9444 56.8194 36.9026 56.9751C36.8669 57.1084 36.8108 57.2353 36.738 57.3485C36.5809 57.5934 36.343 57.7902 36.051 57.889C36.0081 57.9037 35.9643 57.9217 35.9195 57.932C35.8207 57.9546 35.7219 57.9771 35.6245 57.9771C35.6113 57.9771 35.5981 57.9999 35.5849 57.9999H27.6527C26.9228 57.9999 26.3312 57.4083 26.3312 56.6783C26.3312 55.9484 26.9228 55.3568 27.6527 55.3568H33.9442L30.4533 40.9752C29.9172 38.7691 27.083 36.8613 24.0871 36.625C23.0663 38.2476 20.993 39.3194 18.6997 39.3194C16.4064 39.3194 14.3333 38.2564 13.3126 36.6338C10.3169 36.8701 7.48251 38.7678 6.94626 40.9737L3.4554 55.357H9.74686C10.4768 55.357 11.0684 55.9486 11.0684 56.6785C11.0684 57.4084 10.4768 58 9.74686 58H1.81466C1.7038 58 1.59132 57.9695 1.47855 57.9435C1.43465 57.9335 1.39148 57.8978 1.34934 57.8834C1.05787 57.7849 0.829835 57.5917 0.672574 57.3475C0.67228 57.3469 0.681384 57.3461 0.681384 57.3457C0.534549 57.2312 0.54145 57.1027 0.505769 56.9676C0.464949 56.8136 0.446741 56.6485 0.465095 56.4835C0.472437 56.4152 0.482569 56.3441 0.500042 56.2794L4.37929 40.3085C5.24797 36.7356 9.44702 33.919 13.9402 33.919H14.1218C14.6863 33.919 15.1884 34.2906 15.3717 34.8247C15.6828 35.7311 16.9259 36.6619 18.6999 36.6619C20.4739 36.6619 21.717 35.7355 22.0282 34.8289C22.2114 34.295 22.7136 33.919 23.278 33.919H23.4597C27.9534 33.919 32.1535 36.7356 33.0217 40.3087L36.9022 56.2882C36.9193 56.3522 36.932 56.419 36.9393 56.4866ZM17.5034 18.9418C17.5034 18.2119 16.9118 17.6203 16.1819 17.6203H14.7136C13.9836 17.6203 13.392 18.2119 13.392 18.9418C13.392 19.6717 13.9836 20.2633 14.7136 20.2633H16.1819C16.9118 20.2633 17.5034 19.6717 17.5034 18.9418ZM21.2179 20.2633H22.6864C23.4164 20.2633 24.008 19.6717 24.008 18.9418C24.008 18.2119 23.4164 17.6203 22.6864 17.6203H21.2179C20.488 17.6203 19.8964 18.2119 19.8964 18.9418C19.8964 19.6717 20.488 20.2633 21.2179 20.2633ZM8.29862 21.966C8.68157 22.0288 9.04763 21.9212 9.34379 21.6703C9.63996 21.4192 9.78503 21.0505 9.78503 20.6622V18.133C9.78503 13.2681 13.7712 9.31025 18.636 9.31025C18.8724 9.31025 19.1208 9.3195 19.3525 9.33785C18.1278 11.2391 16.3546 12.6132 14.3503 13.1738C13.6474 13.3704 13.2405 14.0996 13.4371 14.8025C13.6337 15.5054 14.3654 15.9167 15.0676 15.719C17.9685 14.9078 20.4918 12.8311 22.0531 9.98731C25.2405 11.3187 27.4868 14.4686 27.4868 18.133C27.4868 21.9106 25.111 25.1955 21.6137 26.4286C21.1977 26.0775 20.6608 25.843 20.0753 25.843H17.2535C15.9363 25.843 14.8647 26.9486 14.8647 28.2658C14.8647 29.5831 15.9363 30.6886 17.2535 30.6886H20.0753C21.1436 30.6886 22.0505 29.9723 22.3549 29.0029C25.7606 27.8516 28.3415 25.1899 29.4787 21.8882C31.0138 21.5155 31.957 20.559 31.957 19.3871V16.4579C31.957 15.2417 30.9398 14.2637 29.3034 13.9229C27.6216 9.67763 23.4877 6.66721 18.651 6.66721C13.8077 6.66721 9.65788 9.68527 7.98057 13.9395C6.38917 14.2947 5.37982 15.2609 5.37982 16.4578V19.387C5.38012 20.66 6.52881 21.6723 8.29862 21.966ZM40.3049 13.362C41.0348 13.362 41.6264 12.7704 41.6264 12.0405C41.6264 11.3106 41.0348 10.719 40.3049 10.719H40.1948C39.4649 10.719 38.8733 11.3106 38.8733 12.0405C38.8733 12.7704 39.4649 13.362 40.1948 13.362H40.3049ZM44.8978 13.362C45.6277 13.362 46.2193 12.7704 46.2193 12.0405C46.2193 11.3106 45.6277 10.719 44.8978 10.719H44.7878C44.0579 10.719 43.4663 11.3106 43.4663 12.0405C43.4663 12.7704 44.0579 13.362 44.7878 13.362H44.8978ZM47.9455 0H32.5542C29.4303 0 26.8887 2.56477 26.8887 5.6887C26.8887 6.41862 27.4803 7.02182 28.2102 7.02182C28.9402 7.02182 29.5318 6.41274 29.5318 5.68283C29.5318 4.01624 30.8876 2.64289 32.5542 2.64289H47.9455C49.6121 2.64289 50.8991 4.04532 50.8991 5.71175V18.4669C50.8991 20.1336 49.6119 21.4377 47.9455 21.4377H35.0654C34.6494 21.4377 34.2577 21.6594 34.008 21.9924L29.6601 27.8052C29.2224 28.3892 29.3409 29.2239 29.9248 29.6618C30.1626 29.84 30.4407 29.9293 30.7166 29.9293C31.1185 29.9293 31.5154 29.7224 31.775 29.376L35.7263 24.081H47.9455C51.0694 24.081 53.5421 21.5911 53.5421 18.4672V5.7119C53.5421 2.58798 51.0694 0 47.9455 0ZM35.7121 13.362C36.442 13.362 37.0336 12.7704 37.0336 12.0405C37.0336 11.3106 36.442 10.719 35.7121 10.719H35.6019C34.872 10.719 34.2804 11.3106 34.2804 12.0405C34.2804 12.7704 34.872 13.362 35.6019 13.362H35.7121Z" fill="black"/>
</svg>
