<svg width="61" height="38" viewBox="0 0 61 38" fill="none" xmlns="http://www.w3.org/2000/svg">
<path fill-rule="evenodd" clip-rule="evenodd" d="M22.174 15.2173C21.0694 15.2173 20.174 16.1127 20.174 17.2173V21.4782C20.174 22.5827 21.0694 23.4782 22.174 23.4782H26.4348C27.5394 23.4782 28.4348 22.5827 28.4348 21.4782V17.2173C28.4348 16.1127 27.5394 15.2173 26.4348 15.2173H22.174ZM22.674 17.7173V20.9782H25.9348V17.7173H22.674Z" fill="white"/>
<path fill-rule="evenodd" clip-rule="evenodd" d="M0.75 10.4695C0.75 8.67456 2.20508 7.21948 4 7.21948H39.551C39.9652 7.21948 40.301 6.8837 40.301 6.46948V3.93879C40.301 2.17768 41.7287 0.750015 43.4898 0.750015C45.2509 0.750015 46.6786 2.17768 46.6786 3.93879V6.46948C46.6786 6.8837 47.0144 7.21948 47.4286 7.21948H51.3773C52.5104 7.21948 53.5617 7.80965 54.1518 8.777L59.7745 17.9945C60.0855 18.5042 60.25 19.0898 60.25 19.6869V33.8696C60.25 35.6645 58.7949 37.1196 57 37.1196H4C2.20507 37.1196 0.75 35.6645 0.75 33.8696V10.4695ZM42.801 3.93879C42.801 3.55839 43.1094 3.25002 43.4898 3.25002C43.8702 3.25002 44.1786 3.55839 44.1786 3.93879V6.46948C44.1786 8.26441 45.6336 9.71948 47.4286 9.71948H51.3773C51.6388 9.71948 51.8814 9.85568 52.0176 10.0789L57.6403 19.2964C57.712 19.414 57.75 19.5491 57.75 19.6869V33.8696C57.75 34.2838 57.4142 34.6196 57 34.6196H48.6848V18.4565C48.6848 16.6616 47.2297 15.2065 45.4348 15.2065H38.6957C36.9008 15.2065 35.4457 16.6616 35.4457 18.4565V34.6196H4C3.58579 34.6196 3.25 34.2838 3.25 33.8696V32.9892H12.7391C13.4295 32.9892 13.9891 32.4295 13.9891 31.7392C13.9891 31.0488 13.4295 30.4892 12.7391 30.4892H3.25V28.0326H16.0435C16.7338 28.0326 17.2935 27.473 17.2935 26.7826C17.2935 26.0923 16.7338 25.5326 16.0435 25.5326H3.25V23.0761H11.913C12.6034 23.0761 13.163 22.5165 13.163 21.8261C13.163 21.1358 12.6034 20.5761 11.913 20.5761H3.25V18.25H12C12.6904 18.25 13.25 17.6904 13.25 17C13.25 16.3096 12.6904 15.75 12 15.75L3.25 15.75V13.25L15 13.25C15.6904 13.25 16.25 12.6904 16.25 12C16.25 11.3096 15.6904 10.75 15 10.75L3.25 10.75V10.4695C3.25 10.0553 3.58579 9.71948 4 9.71948H39.551C41.3459 9.71948 42.801 8.26441 42.801 6.46948V3.93879ZM46.1848 18.4565V34.6196H37.9457V18.4565C37.9457 18.0423 38.2815 17.7065 38.6957 17.7065H45.4348C45.849 17.7065 46.1848 18.0423 46.1848 18.4565Z" fill="white"/>
</svg>
