<svg  class="main-svg-sprite main-svg-sprite--icons" xmlns="http://www.w3.org/2000/svg" xmlns:xlink="http://www.w3.org/1999/xlink"><symbol viewBox="0 0 24 24" id="close" xmlns="http://www.w3.org/2000/svg"><path d="M18.984 6.422L13.406 12l5.578 5.578-1.406 1.406L12 13.406l-5.578 5.578-1.406-1.406L10.594 12 5.016 6.422l1.406-1.406L12 10.594l5.578-5.578z"/></symbol><symbol viewBox="0 0 28 34" id="doc-icon" xmlns="http://www.w3.org/2000/svg"><path d="M6.856 21.875c0-.565-.392-.902-1.083-.902-.283 0-.474.028-.574.055v1.811c.119.027.264.036.465.036.737 0 1.192-.372 1.192-1zM11.135 20.992c-.31 0-.51.027-.628.055v4.012c.119.028.31.028.483.028 1.255.009 2.075-.683 2.075-2.148.008-1.273-.738-1.947-1.93-1.947z"/><path d="M19.086 0H5.43a3.624 3.624 0 00-3.618 3.619v13.38h-.354C.653 17 0 17.653 0 18.46v8.843c0 .805.653 1.458 1.458 1.458h.354v1.621A3.623 3.623 0 005.43 34h18.633a3.623 3.623 0 003.618-3.619V8.564L19.086 0zM3.826 20.054c.427-.072 1.027-.127 1.874-.127.855 0 1.465.164 1.874.492.391.309.655.819.655 1.419 0 .6-.2 1.11-.564 1.456-.473.446-1.173.646-1.992.646-.183 0-.346-.01-.474-.027v2.193H3.825v-6.052zm20.237 11.73H5.43A1.404 1.404 0 014.03 30.38V28.76h17.37c.805 0 1.458-.653 1.458-1.459v-8.843c0-.806-.653-1.458-1.459-1.458H4.028V3.619c0-.772.63-1.4 1.402-1.4l12.827-.014v4.741a2.51 2.51 0 002.51 2.51l4.644-.014.052 20.94c0 .773-.628 1.402-1.4 1.402zM9.115 26.078v-6.024a12.49 12.49 0 011.875-.127c1.164 0 1.92.21 2.511.655.637.473 1.037 1.228 1.037 2.312 0 1.173-.427 1.984-1.019 2.484-.646.536-1.629.791-2.83.791-.719 0-1.228-.046-1.574-.091zm9.931-3.566v1.128h-2.202v2.466h-1.392v-6.133H19.2v1.137h-2.357v1.402h2.202z"/></symbol><symbol viewBox="0 0 24 24" id="menu" xmlns="http://www.w3.org/2000/svg"><path d="M3 18h18v-2H3v2zm0-5h18v-2H3v2zm0-7v2h18V6H3z"/></symbol><symbol viewBox="0 0 32 32" id="search" xmlns="http://www.w3.org/2000/svg"><path d="M19.427 20.427a8.5 8.5 0 112-2l5.585 5.585c.55.55.546 1.431 0 1.976l-.023.023a1.398 1.398 0 01-1.976 0l-5.585-5.585zM14.5 20a6.5 6.5 0 100-13 6.5 6.5 0 000 13z"/></symbol><symbol viewBox="0 0 30 30" id="whats-app-icon" xmlns="http://www.w3.org/2000/svg"><path d="M14.151.017C6.228.395-.024 6.993.001 14.925c.006 2.416.59 4.696 1.618 6.71L.04 29.305a.58.58 0 00.702.68l7.513-1.78a14.808 14.808 0 006.393 1.552c8.098.123 14.85-6.306 15.103-14.402C30.02 6.677 22.86-.397 14.151.017zm8.966 23.1a11.574 11.574 0 01-8.238 3.412c-1.822 0-3.567-.409-5.185-1.215l-1.047-.521-4.606 1.091.97-4.707-.516-1.01a11.52 11.52 0 01-1.266-5.288c0-3.112 1.211-6.038 3.412-8.238a11.67 11.67 0 018.238-3.412c3.112 0 6.037 1.211 8.238 3.412 2.2 2.2 3.412 5.126 3.412 8.238 0 3.084-1.232 6.057-3.412 8.238z"/><path d="M22.1 18.105l-2.882-.827a1.074 1.074 0 00-1.063.28l-.705.718a1.05 1.05 0 01-1.142.24c-1.363-.55-4.23-3.1-4.963-4.376a1.05 1.05 0 01.083-1.164l.615-.796c.241-.312.292-.73.133-1.091l-1.213-2.742a1.075 1.075 0 00-1.678-.385c-.804.68-1.759 1.714-1.875 2.86-.204 2.019.662 4.564 3.937 7.62 3.783 3.532 6.812 3.998 8.785 3.52 1.119-.27 2.013-1.357 2.577-2.246a1.075 1.075 0 00-.61-1.61z"/></symbol></svg>