<svg width="28" height="34" viewBox="0 0 28 34" fill="none" xmlns="http://www.w3.org/2000/svg">
<path d="M6.85571 21.8746C6.85571 21.3099 6.46391 20.9732 5.77261 20.9732C5.49032 20.9732 5.29915 21.001 5.19915 21.0277V22.8393C5.31755 22.866 5.4631 22.8749 5.66373 22.8749C6.40058 22.8749 6.85571 22.5026 6.85571 21.8746Z" fill="white"/>
<path d="M11.1352 20.9921C10.8256 20.9921 10.6255 21.0189 10.5072 21.0466V25.0588C10.6256 25.0866 10.8168 25.0866 10.9896 25.0866C12.2455 25.0955 13.0646 24.4042 13.0646 22.9394C13.0734 21.6656 12.3271 20.9921 11.1352 20.9921Z" fill="white"/>
<path d="M19.0861 0H5.43031C3.43533 0 1.81163 1.62483 1.81163 3.61868V16.9999H1.45819C0.653005 16.9999 0 17.6523 0 18.4582V27.3015C0 28.1074 0.652935 28.7597 1.45819 28.7597H1.81163V30.3812C1.81163 32.3773 3.43533 33.9999 5.43031 33.9999H24.063C26.0567 33.9999 27.6807 32.3772 27.6807 30.3812V8.56445L19.0861 0ZM3.82544 20.0541C4.25279 19.9819 4.85347 19.9275 5.69976 19.9275C6.55502 19.9275 7.16458 20.0907 7.57416 20.4186C7.9654 20.7276 8.22942 21.2377 8.22942 21.8379C8.22942 22.4381 8.02936 22.9483 7.66534 23.2939C7.19187 23.7396 6.49169 23.9396 5.67261 23.9396C5.49032 23.9396 5.32693 23.9306 5.19915 23.9129V26.1058H3.82544V20.0541ZM24.063 31.7838H5.43031C4.65785 31.7838 4.02882 31.1548 4.02882 30.3812V28.7597H21.3983C22.2037 28.7597 22.8566 28.1074 22.8566 27.3015V18.4582C22.8566 17.6523 22.2037 16.9999 21.3983 16.9999H4.02882V3.61868C4.02882 2.84734 4.65792 2.21831 5.43031 2.21831L18.257 2.20492V6.94612C18.257 8.33097 19.3806 9.45567 20.7666 9.45567L25.4111 9.44234L25.4633 30.3812C25.4633 31.1548 24.8354 31.7838 24.063 31.7838ZM9.11521 26.078V20.0541C9.62471 19.973 10.2888 19.9275 10.9896 19.9275C12.1543 19.9275 12.9095 20.1364 13.5013 20.582C14.1382 21.0555 14.5383 21.8102 14.5383 22.8937C14.5383 24.0673 14.1109 24.8776 13.519 25.3776C12.8733 25.9144 11.8903 26.169 10.6895 26.169C9.97032 26.169 9.46082 26.1235 9.11521 26.078ZM19.0462 22.5115V23.6395H16.8439V26.1058H15.4518V19.973H19.2006V21.1099H16.8439V22.5115H19.0462Z" fill="white"/>
</svg>
