<svg width="30" height="30" viewBox="0 0 30 30" fill="none" xmlns="http://www.w3.org/2000/svg">
<path d="M14.1513 0.0173493C6.22837 0.394596 -0.0239662 6.99289 6.90646e-05 14.9248C0.00738728 17.3407 0.59062 19.621 1.61947 21.6358L0.039817 29.3036C-0.0456339 29.7184 0.328456 30.0815 0.7405 29.984L8.25408 28.2038C10.1844 29.1654 12.3526 29.7208 14.6473 29.7558C22.7454 29.8795 29.4977 23.4495 29.7501 15.3544C30.0207 6.67713 22.859 -0.397349 14.1513 0.0173493ZM23.1166 23.1167C20.9162 25.3171 17.9906 26.5289 14.8788 26.5289C13.0567 26.5289 11.3122 26.1201 9.69369 25.3139L8.64732 24.7926L4.04073 25.884L5.01039 21.1769L4.49489 20.1675C3.65465 18.5219 3.22862 16.7425 3.22862 14.8788C3.22862 11.7669 4.44043 8.84131 6.64084 6.64083C8.8216 4.46007 11.7949 3.22853 14.879 3.22853C17.9908 3.22861 20.9163 4.44041 23.1167 6.64075C25.3171 8.84117 26.5289 11.7667 26.529 14.8785C26.5289 17.9627 25.2974 20.936 23.1166 23.1167Z" fill="#72C30B"/>
<path d="M22.0997 18.1055L19.2177 17.2779C18.8388 17.1692 18.4308 17.2766 18.1547 17.558L17.4499 18.276C17.1527 18.5788 16.7018 18.6761 16.3085 18.5169C14.9452 17.9652 12.0773 15.4153 11.3449 14.1399C11.1336 13.7719 11.1685 13.312 11.428 12.9763L12.0433 12.1802C12.2843 11.8683 12.3352 11.4495 12.1758 11.0889L10.9633 8.34655C10.6728 7.68971 9.83345 7.4985 9.28508 7.96228C8.48072 8.64258 7.52634 9.67639 7.41033 10.8217C7.20578 12.8409 8.07177 15.3864 11.3465 18.4428C15.1298 21.9739 18.1594 22.4404 20.1319 21.9625C21.2507 21.6915 22.1448 20.6051 22.7091 19.7156C23.0938 19.1091 22.7901 18.3037 22.0997 18.1055Z" fill="#72C30B"/>
</svg>
